<?xml version="1.0" standalone="no"?>
<!DOCTYPE svg PUBLIC "-//W3C//DTD SVG 20010904//EN"
 "http://www.w3.org/TR/2001/REC-SVG-20010904/DTD/svg10.dtd">
<svg version="1.0" xmlns="http://www.w3.org/2000/svg"
 width="832.000000pt" height="832.000000pt" viewBox="0 0 832.000000 832.000000"
 preserveAspectRatio="xMidYMid meet">
<metadata>
Created by potrace 1.14, written by Peter Selinger 2001-2017
</metadata>
<g transform="translate(0.000000,832.000000) scale(0.100000,-0.100000)"
fill="#000000" stroke="none">
<path d="M823 7768 c-1 -304 -5 -1057 -9 -1673 -9 -1604 -10 -3039 -1 -3115 4
-36 9 -81 12 -100 3 -19 7 -53 10 -75 2 -22 6 -51 9 -65 3 -13 8 -42 12 -64 3
-22 7 -43 10 -47 2 -3 6 -21 8 -40 6 -38 43 -187 50 -198 3 -4 7 -19 10 -34 6
-34 54 -177 66 -199 6 -10 10 -24 10 -31 0 -8 6 -27 14 -43 8 -16 31 -69 52
-119 102 -244 270 -520 461 -760 86 -108 338 -367 422 -434 24 -19 49 -40 55
-46 33 -31 204 -155 214 -155 7 0 12 -5 12 -10 0 -6 16 -18 35 -27 19 -9 35
-20 35 -24 0 -4 8 -9 18 -13 9 -3 35 -17 57 -31 46 -29 228 -130 235 -130 3 0
16 -7 30 -15 14 -8 27 -15 30 -15 3 0 37 -16 75 -34 39 -18 75 -34 80 -36 6
-1 21 -6 35 -12 70 -29 256 -92 283 -97 7 -1 37 -10 67 -19 51 -15 77 -21 140
-33 21 -3 54 -11 80 -19 5 -1 81 -12 135 -20 76 -10 113 -16 150 -22 22 -3
885 -8 1917 -10 l1878 -4 -5 2598 c-3 1429 -7 2627 -9 2663 -4 68 -15 198 -21
240 -3 23 -21 138 -30 200 -25 161 -120 495 -182 640 -3 8 -7 17 -8 20 -12 45
-164 343 -176 348 -5 2 -9 9 -9 15 0 7 -20 42 -45 79 -25 37 -45 72 -45 78 0
5 -4 10 -8 10 -5 0 -14 10 -20 23 -15 31 -170 228 -244 311 -131 145 -262 270
-393 375 -38 31 -76 61 -82 68 -27 24 -282 192 -348 228 -38 21 -73 43 -77 49
-4 6 -8 8 -8 4 0 -4 -28 8 -62 27 -124 68 -490 211 -590 230 -9 2 -43 11 -75
19 -56 15 -167 39 -188 41 -5 1 -23 4 -40 8 -32 7 -63 11 -159 23 -33 4 -73 9
-90 12 -17 3 -875 7 -1906 9 l-1875 4 -2 -553z m3722 -222 c17 -3 50 -7 75
-11 106 -13 168 -24 215 -37 22 -7 43 -11 46 -10 19 4 349 -107 409 -138 19
-10 73 -37 120 -60 157 -78 363 -212 470 -306 84 -74 161 -147 214 -203 34
-35 69 -73 79 -83 9 -10 17 -22 17 -28 0 -5 4 -10 8 -10 13 0 161 -205 216
-300 34 -58 136 -263 158 -315 87 -213 155 -478 174 -680 3 -33 8 -71 11 -85
7 -28 13 -4476 7 -4500 -3 -14 -163 -15 -1456 -13 -799 1 -1469 4 -1488 6
-111 14 -157 20 -175 23 -11 3 -35 7 -54 10 -32 5 -41 7 -93 19 -13 3 -32 7
-43 10 -64 14 -142 38 -152 47 -7 6 -13 8 -13 5 0 -6 -78 19 -135 44 -16 7
-32 13 -35 14 -16 5 -68 28 -115 51 -30 14 -58 25 -62 26 -4 0 -20 9 -34 19
-15 10 -37 23 -50 29 -26 11 -26 11 -149 89 -47 30 -86 58 -88 63 -2 4 -10 8
-17 8 -7 0 -15 3 -17 8 -1 4 -30 27 -62 52 -158 119 -335 300 -465 475 -282
377 -456 829 -498 1290 -5 59 -7 1169 -2 1240 0 6 0 21 -1 35 -1 14 1 387 4
830 3 443 8 1159 10 1593 3 433 7 791 10 795 5 8 2910 6 2961 -2z"/>
<path d="M2332 6785 c-8 -12 -9 -734 -1 -747 4 -6 341 -10 965 -10 841 0 1006
-3 1099 -21 49 -10 102 -24 150 -43 11 -4 23 -8 28 -9 4 -2 9 -4 12 -5 3 -1 8
-3 13 -4 4 -1 26 -12 50 -24 176 -92 305 -219 407 -397 40 -72 100 -217 110
-269 2 -11 4 -21 5 -21 1 0 3 -9 5 -20 5 -25 12 -68 22 -120 4 -22 7 -96 7
-165 1 -151 -9 -244 -36 -345 -6 -22 -11 -44 -12 -50 -1 -5 -4 -14 -7 -20 -4
-5 -9 -23 -13 -40 -13 -52 -93 -208 -145 -282 -154 -218 -387 -360 -656 -399
-27 -4 -160 -8 -295 -9 l-245 -2 -3 -382 -2 -382 327 2 c350 2 424 7 573 41
52 12 100 23 105 24 22 5 173 63 220 85 49 22 160 85 180 101 6 4 42 31 80 59
73 54 218 196 270 263 17 22 40 51 53 67 12 15 22 31 22 37 0 6 4 12 9 14 12
5 112 181 150 268 38 86 102 270 94 270 -3 0 -1 6 5 13 14 16 48 183 66 322 6
46 18 195 19 240 1 17 -2 36 -7 43 -4 7 -2 12 4 12 6 0 9 4 6 8 -3 5 -8 56
-11 113 -6 114 -10 154 -26 244 -6 33 -13 74 -16 90 -3 17 -12 55 -20 85 -8
30 -18 69 -23 85 -53 205 -197 485 -344 670 -71 89 -229 238 -326 307 -89 63
-310 185 -310 172 0 -4 -6 -1 -14 5 -8 7 -22 13 -32 15 -11 3 -32 10 -49 17
-16 6 -34 13 -40 15 -16 5 -200 53 -200 53 0 -1 -99 13 -125 17 -70 13 -284
16 -1148 17 -587 1 -946 -2 -950 -8z"/>
<path d="M2328 5250 c-6 -28 0 -2085 6 -2145 10 -100 17 -147 32 -210 8 -33
17 -71 20 -85 16 -74 98 -284 146 -369 39 -69 73 -126 81 -136 4 -5 35 -47 68
-92 33 -46 65 -83 71 -83 6 0 9 -3 5 -6 -10 -10 164 -177 251 -241 42 -32 79
-61 80 -65 2 -5 7 -8 12 -8 4 0 39 -19 76 -42 96 -58 280 -141 364 -164 50
-14 223 -53 265 -60 28 -4 538 -8 1134 -8 l1084 -1 0 370 c-1 204 -2 375 -2
380 -1 7 -349 10 -1023 11 -1053 0 -1076 1 -1203 31 -16 4 -33 7 -37 7 -3 1
-10 4 -14 9 -4 4 -13 7 -20 7 -26 0 -160 69 -229 118 -116 82 -207 180 -277
297 -54 91 -101 207 -112 276 -3 20 -8 42 -11 50 -5 16 -16 96 -15 119 1 50
-2 115 -6 121 -2 4 0 10 6 14 6 4 7 13 1 23 -5 10 -6 24 -1 33 5 8 5 21 1 28
-5 7 -5 30 -1 51 4 21 3 44 -1 52 -4 8 -4 20 0 27 5 7 5 30 1 51 -4 21 -3 44
1 52 4 8 4 20 -1 28 -4 7 -5 23 0 35 5 12 5 27 0 34 -4 7 -4 29 1 49 4 20 5
40 2 46 -7 11 -7 111 0 123 2 4 1 17 -3 28 -4 11 -4 30 1 42 5 14 4 23 -4 27
-7 2 -7 5 -2 5 6 1 8 32 5 82 -3 44 -2 86 2 92 3 6 2 21 -2 33 -5 13 -6 25 -1
28 4 3 5 27 1 53 -3 27 -3 60 0 73 4 14 3 37 -1 53 -5 17 -4 27 3 27 7 0 6 5
-1 14 -7 8 -8 16 -4 19 4 3 6 42 3 86 -3 45 -2 90 1 99 4 9 3 27 -2 39 -5 13
-4 25 2 28 5 4 7 10 4 15 -3 5 -5 33 -5 62 0 29 0 71 -1 93 -1 22 -1 46 0 53
2 18 2 35 2 97 1 78 0 87 -3 115 l-3 25 -372 0 c-324 0 -372 -2 -375 -15z"/>
</g>
</svg>
