<?xml version="1.0" encoding="UTF-8"?>
<!DOCTYPE svg PUBLIC "-//W3C//DTD SVG 1.1//EN" "http://www.w3.org/Graphics/SVG/1.1/DTD/svg11.dtd">
<!-- Creator: CorelDRAW -->
<svg xmlns="http://www.w3.org/2000/svg" xml:space="preserve" width="418px" height="364px" version="1.1" style="shape-rendering:geometricPrecision; text-rendering:geometricPrecision; image-rendering:optimizeQuality; fill-rule:evenodd; clip-rule:evenodd"
viewBox="0 0 84.17 73.42"
 xmlns:xlink="http://www.w3.org/1999/xlink"
 xmlns:xodm="http://www.corel.com/coreldraw/odm/2003">
 <defs>
  <style type="text/css">
   <![CDATA[
    .fil0 {fill:white}
   ]]>
  </style>
 </defs>
 <g id="Слой_x0020_1">
  <metadata id="CorelCorpID_0Corel-Layer"/>
  <g id="_105553234042080">
   <path class="fil0" d="M16.66 23.49c-0.39,0 -2.6,0.57 -3.01,0.67 -0.52,0.14 -1,0.19 -1.4,0.44 -1.3,0.85 -0.55,2.88 0.68,2.88 0.46,0 0.82,-0.06 1.27,-0.18 0.28,-0.07 0.56,-0.13 0.86,-0.2 0.31,-0.07 0.56,-0.12 0.85,-0.19 0.26,-0.06 0.65,-0.11 0.88,-0.22 0,1.37 0.11,2.63 0.13,3.99l0.09 1.31c-0.76,0.18 -1.51,0.37 -2.28,0.53 -0.75,0.17 -1.27,0.77 -1.27,1.58 0,0.93 0.8,1.58 1.66,1.58 0.44,0 1.51,-0.33 1.98,-0.44l0.12 2.64c0.02,0.19 0,0.44 0.01,0.65 0,0.26 0.05,0.36 0.04,0.65 0,0.5 0.05,0.85 0.05,1.36 -0.43,0.04 -0.99,0.2 -1.32,0.44 -1.06,0.77 -0.78,2.85 1.05,2.85 0.22,0 0.2,-0.04 0.4,-0.04l0.05 1.74c0.04,0.26 0.03,0.53 0.03,0.85 0.01,0.2 0.04,0.2 0.05,0.39l0.04 1.31c0,1.13 0.21,1 -0.15,1.56 -0.3,0.49 -0.23,1.23 0.07,1.68 0.11,0.16 0.2,0.16 0.22,0.36 0.08,0.82 0,1.94 0.09,2.71 0.08,0.68 0.04,1.41 0.08,2.15 0.01,0.21 0.05,0.28 0.05,0.53 -0.01,0.52 -0.02,1.14 0.06,1.65l0.2 5.41c-0.01,0.67 0.1,1.27 0.6,1.67 0.7,0.56 1.58,0.3 2.64,0.3l1.41 -0.04c0.21,-0.01 0.21,-0.04 0.43,-0.05 0.65,-0.02 1.19,-0.02 1.85,-0.04l3.64 -0.17c0.62,-0.05 1.24,-0.03 1.88,-0.05l3.24 -0.13c0.23,0 0.25,-0.04 0.44,-0.04l-0.06 0.03c0,0 -0.04,0.02 -0.06,0.03 -0.29,0.11 -0.7,0.16 -0.98,0.23l-3.49 0.81c-2.31,0.49 -4.63,1.14 -6.94,1.62l-2.31 0.54c-0.25,0.06 -4.31,1.05 -4.66,1.08 -0.06,-0.13 -0.16,-0.62 -0.2,-0.81l-2.9 -12.49c-0.53,-2.22 -1.03,-4.42 -1.56,-6.64 -0.12,-0.53 -0.25,-1.11 -0.37,-1.64l-0.59 -2.49c-0.27,-1.35 -0.64,-2.8 -0.97,-4.16l-2.71 -11.66c-0.11,-0.53 -0.25,-1.12 -0.38,-1.64 -0.42,-1.66 -0.74,-3.36 -1.17,-5.01 -0.1,-0.41 -1.42,-6.35 -1.56,-6.64 0.21,-0.02 0.58,-0.13 0.79,-0.18l5.62 -1.3c0.55,-0.13 1.05,-0.24 1.6,-0.38l3.2 -0.75c0.38,-0.09 1.3,-0.23 1.59,-0.37l0.13 2.94c0.02,0.2 0,0.44 0,0.65 0.01,0.23 0.05,0.3 0.05,0.57 0,0.22 0,0.44 0,0.66 0,0.25 0.04,0.3 0.05,0.57l0.12 3.07c0.02,0.2 0,0.45 0,0.66 0.01,0.25 0.05,0.33 0.05,0.61zm-16.66 -7.81l0 -0.24c0.02,-0.37 0.15,-0.71 0.43,-0.99 0.25,-0.26 0.47,-0.37 0.85,-0.47l4.27 -0.99c2.12,-0.46 4.23,-1.03 6.36,-1.48l2.14 -0.5c0.42,-0.1 1.8,-0.36 2.08,-0.5 0,-1.29 -0.13,-2.49 -0.13,-3.81 0,-0.67 0.61,-1.28 1.17,-1.42 0.51,-0.12 1.81,-0.09 2.47,-0.11 0.23,-0.01 0.33,-0.05 0.61,-0.05l4.34 -0.18c0.21,0 0.45,0.02 0.66,0 0.21,-0.01 0.34,-0.04 0.62,-0.04 0.46,0 0.8,-0.05 1.22,-0.04 0.59,0 1.46,-0.09 1.89,-0.09 0.2,0 0.41,0 0.61,0 0.27,0 0.34,-0.05 0.61,-0.05l1.88 -0.04c0.53,-0.06 2.22,-0.07 2.47,-0.13 0.03,-0.46 0.19,-0.97 0.25,-1.41 0.09,-0.67 0.27,-2.09 0.66,-2.59 0.6,-0.76 1.38,-0.55 2.19,-0.42 0.28,0.04 0.52,0.09 0.82,0.14l8.31 1.47c2.22,0.37 4.44,0.82 6.66,1.19 1.11,0.18 2.19,0.4 3.31,0.59 0.98,0.16 0.83,0.11 1.78,0.11 0.57,0 1.24,-0.09 1.84,-0.09 1.28,0.01 2.46,-0.13 3.77,-0.13 0.39,0 0.75,0.11 1.04,0.36 0.41,0.35 0.58,0.69 0.58,1.35 0.39,0.03 0.84,0.16 1.23,0.22 3.66,0.6 7.24,1.33 10.91,1.93l3.65 0.65c0.7,0.12 1.68,0.18 2.17,0.67 0.64,0.64 0.44,1.4 0.31,2.17l-0.5 2.8c-0.69,3.67 -1.34,7.47 -1.98,11.13l-1.32 7.44c-0.1,0.63 -0.21,1.23 -0.33,1.86 -0.58,3.08 -1.03,6.2 -1.64,9.27 -0.12,0.62 -0.23,1.23 -0.33,1.87 -0.72,4.34 -1.59,8.65 -2.31,12.99 -0.1,0.62 -0.21,1.23 -0.33,1.86l-0.66 3.73c-0.13,0.7 -0.48,3.2 -0.72,3.66l-0.26 0.35c-0.28,0.28 -0.59,0.49 -1.05,0.49 -0.74,0 -3.14,-0.52 -3.91,-0.65 -1.25,-0.21 -2.48,-0.45 -3.69,-0.66 -1.26,-0.22 -2.43,-0.44 -3.69,-0.65 -0.63,-0.1 -1.25,-0.2 -1.86,-0.33 -0.6,-0.12 -1.19,-0.2 -1.83,-0.32 -1.25,-0.23 -2.45,-0.45 -3.72,-0.66 -0.47,-0.08 -0.46,-0.11 -0.94,-0.07 -0.18,0.02 -0.39,0 -0.57,0 -0.24,0.01 -0.26,0.04 -0.48,0.05 -0.19,0 -0.38,-0.02 -0.56,0.01l-8.32 1.94c-1.21,0.26 -2.35,0.55 -3.56,0.83l-3.52 0.81c-1.16,0.28 -2.37,0.54 -3.52,0.83 -2.93,0.73 -5.92,1.32 -8.85,2.06l-3.53 0.81c-0.59,0.13 -4.91,1.21 -5.28,1.21 -0.71,0 -1.27,-0.34 -1.54,-0.9 -0.1,-0.2 -0.2,-0.69 -0.24,-0.91 -0.07,-0.33 -0.14,-0.58 -0.22,-0.92 -0.55,-2.45 -1.17,-4.87 -1.7,-7.32l-5.98 -25.64c-0.3,-1.23 -0.54,-2.44 -0.85,-3.67l-0.85 -3.66c-0.27,-1.22 -0.6,-2.44 -0.85,-3.66 -0.06,-0.3 -0.14,-0.62 -0.22,-0.93 -0.67,-2.73 -1.27,-5.51 -1.92,-8.25l-0.32 -1.38c-0.04,-0.17 -0.07,-0.34 -0.08,-0.5zm28.45 41.52c0,-0.27 2.58,-14.58 2.67,-15.13l1.49 -8.37c0.19,-1.15 0.39,-2.24 0.6,-3.4l1.78 -10.05c0.19,-1.11 0.42,-2.27 0.6,-3.39 0.54,-3.3 1.24,-6.74 1.79,-10.05l0.45 -2.53c0.04,-0.27 0.14,-0.6 0.14,-0.87 0.94,0.22 2.87,0.5 3.97,0.71 0.43,0.09 0.88,0.15 1.35,0.24 1.8,0.34 3.55,0.61 5.35,0.95 1.72,0.33 3.65,0.61 5.33,0.95 1.75,0.35 3.59,0.61 5.36,0.95 1.79,0.33 3.55,0.6 5.32,0.95 1.05,0.2 2.31,0.38 3.36,0.59l7.37 1.31c0.91,0.17 1.76,0.3 2.68,0.47 0.46,0.08 0.9,0.16 1.34,0.24l1.35 0.23 -1.6 9.04c-0.46,2.45 -0.86,5.12 -1.34,7.52l-0.8 4.55c-0.17,1.01 -0.37,2.03 -0.54,3.01l-1.6 9.05c-0.51,2.95 -1.13,6.11 -1.61,9.04 -0.34,2.02 -0.72,4.01 -1.07,6.04l-0.93 5.25c-0.01,0.04 -0.02,0.16 -0.04,0.18 -0.05,0.14 0.09,0.11 -0.5,0.01l-12.06 -2.14c-0.99,-0.2 -2.01,-0.33 -3.02,-0.54l-3.01 -0.53c-2.02,-0.34 -4.03,-0.74 -6.03,-1.07l-12.07 -2.14c-0.5,-0.1 -1.01,-0.17 -1.49,-0.27 -0.36,-0.07 -4.34,-0.8 -4.59,-0.8zm3.82 -39.8c-0.18,0 -0.36,-0.01 -0.53,-0.01 -0.24,0.01 -0.26,0.04 -0.48,0.05 -0.34,0.01 -0.71,-0.03 -1.04,0.02 -0.65,0.1 -1.4,-0.01 -2.05,0.09 -0.84,0.13 -1.2,-0.13 -1.91,0.24 -1.02,0.53 -1.16,2.16 -0.07,2.75 0.6,0.32 1.07,0.19 1.69,0.19 0.58,-0.01 1.36,0.01 1.92,-0.05 0.55,-0.06 1.3,-0.08 1.9,-0.08 -0.04,0.41 -0.15,0.89 -0.23,1.3 -0.11,0.54 -0.65,3.42 -0.69,3.91 -1,0.09 -2.06,0.13 -3.12,0.13 -0.53,0 -0.97,0.11 -1.28,0.35 -1.14,0.92 -0.61,2.86 0.97,2.86 0.97,-0.01 1.89,-0.09 2.86,-0.09 -0.19,0.81 -0.34,1.77 -0.47,2.6l-0.35 1.93c-0.04,0.24 -0.1,0.46 -0.1,0.68 -0.2,0.01 -0.28,0.05 -0.53,0.05 -0.21,0 -0.41,0 -0.62,0 -0.3,0 -0.84,0.05 -1.07,0.15 -1.07,0.41 -1.26,1.72 -0.57,2.55 0.53,0.63 1.44,0.52 2.17,0.45 0,0.46 -0.55,3.35 -0.65,3.83 -0.06,0.32 -0.1,0.6 -0.16,0.93 -0.15,0.79 0.05,0.38 -0.51,0.64 -0.87,0.4 -1.22,1.58 -0.65,2.37 0.14,0.19 0.32,0.34 0.52,0.48 0,0.25 -0.08,0.56 -0.12,0.79l-1.69 9.53c-0.09,0.52 -0.42,2.05 -0.42,2.43 0,0.6 0.33,1.07 0.79,1.36 0.26,0.18 0.48,0.19 0.83,0.26 1.56,0.32 3.06,0.56 4.62,0.82 1.25,0.21 2.44,0.43 3.69,0.66 0.63,0.11 1.22,0.2 1.82,0.32l1.38 0.24c0.2,0.04 0.28,0.07 0.5,0.07l-1.62 0.09c-0.24,0 -0.28,0.04 -0.52,0.04 -0.95,0.01 -1.86,0.09 -2.68,0.09 -0.26,0 -0.32,0.03 -0.53,0.04 -0.18,0.01 -0.38,0 -0.57,0 -0.24,0 -0.28,0.05 -0.52,0.05l-4.31 0.16c-0.65,0.09 -1.51,-0.02 -2.17,0.07 -0.64,0.09 -1.44,0.03 -2.16,0.07 -0.2,0.01 -0.24,0.05 -0.48,0.05l-1.67 0.04c0,-0.54 -0.07,-1.15 -0.09,-1.66 -0.01,-0.61 -0.04,-1.1 -0.04,-1.72 0,-0.29 -0.04,-0.48 -0.04,-0.83 0,-0.33 -0.01,-0.57 -0.04,-0.84 -0.06,-0.54 -0.02,-1.18 -0.05,-1.74 -0.06,-1.15 -0.18,-3.19 -0.17,-4.26 0,-0.34 -0.05,-0.49 -0.05,-0.83 0,-0.34 -0.04,-0.56 -0.04,-0.83 -0.01,-0.29 0.02,-0.63 0,-0.92 -0.05,-0.49 -0.09,-1.15 -0.09,-1.67l-0.06 -1.73c-0.05,-0.29 -0.01,-0.56 -0.03,-0.85 -0.07,-0.81 -0.04,-1.78 -0.12,-2.55l-0.1 -2.54c0.01,-0.9 -0.08,-1.69 -0.08,-2.59l-0.09 -1.71c-0.08,-1 -0.03,-1.95 -0.09,-2.98 -0.01,-0.19 -0.04,-0.21 -0.05,-0.43 0,-0.62 -0.04,-1.1 -0.04,-1.72 0,-0.52 -0.09,-1.17 -0.09,-1.71 0.01,-1.17 -0.13,-2.27 -0.13,-3.42l-0.17 -4.16c-0.02,-0.28 0.01,-0.59 0,-0.88 -0.02,-0.78 -0.13,-1.74 -0.14,-2.54 0,-0.26 0.03,-0.62 0,-0.87 -0.07,-0.58 -0.1,-3.08 -0.15,-3.4l-0.11 -2.57c0,-0.34 -0.03,-0.56 -0.04,-0.83 -0.02,-0.28 0.01,-0.59 0,-0.88l-0.04 -0.88 3.65 -0.16c0.28,-0.04 0.65,-0.01 0.95,-0.01 0.23,0 0.24,-0.03 0.44,-0.04l1.4 -0.05c0.36,0 0.55,-0.04 0.92,-0.04 1.26,0 2.42,-0.14 3.68,-0.13l3.69 -0.18c-0.04,0.37 -0.17,0.82 -0.22,1.19 -0.16,1.18 -0.41,2.44 -0.64,3.61l-0.85 4.85z"/>
   <path class="fil0" d="M35.82 48.7c0,0.66 0.41,1.2 0.86,1.41 0.4,0.19 5.21,1.02 5.75,1.09 0.32,0.04 0.64,0.12 0.97,0.17l2.91 0.52c1.87,0.36 3.92,0.69 5.84,1.03 0.66,0.12 1.27,0.24 1.94,0.35l5.8 1.03c0.64,0.11 5.51,1.02 5.87,1.02 0.4,0 0.83,-0.24 1.04,-0.45 0.83,-0.82 0.57,-2.12 -0.41,-2.59 -0.34,-0.17 -5.48,-1.04 -5.76,-1.08 -5.08,-0.84 -10.35,-1.91 -15.41,-2.74 -2.23,-0.37 -4.54,-0.83 -6.74,-1.2 -0.77,-0.12 -1.64,-0.35 -2.24,0.33 -0.24,0.27 -0.42,0.61 -0.42,1.11z"/>
   <path class="fil0" d="M38.75 32.08c0,1.75 1.54,1.68 2.78,1.92 1.29,0.25 2.56,0.45 3.87,0.69l13.51 2.4c2.5,0.49 5.22,0.9 7.74,1.37 0.56,0.11 1.58,0.33 2.13,0.33 0.65,0 1.45,-0.71 1.45,-1.53 0,-0.7 -0.3,-1.18 -0.89,-1.48 -0.29,-0.15 -0.56,-0.18 -0.91,-0.24 -0.32,-0.05 -0.65,-0.1 -0.96,-0.17 -1.29,-0.25 -2.57,-0.44 -3.88,-0.68 -0.64,-0.13 -1.25,-0.23 -1.89,-0.34 -0.63,-0.1 -1.29,-0.24 -1.94,-0.35 -3.82,-0.62 -7.76,-1.42 -11.58,-2.05l-5.81 -1.03c-0.57,-0.11 -1.6,-0.33 -2.13,-0.33 -0.77,0 -1.49,0.71 -1.49,1.49z"/>
   <path class="fil0" d="M67.12 47.03c0.55,0 0.79,-0.06 1.22,-0.49 0.12,-0.13 0.22,-0.26 0.3,-0.45 0.33,-0.83 0,-1.65 -0.7,-2.03 -0.38,-0.2 -1.34,-0.32 -1.87,-0.41 -3.85,-0.65 -7.82,-1.44 -11.65,-2.07l-14.51 -2.58c-0.97,-0.19 -1.93,-0.39 -2.5,0.81 -0.38,0.79 0.04,1.98 1.24,2.2l7.37 1.31c2.38,0.41 4.94,0.9 7.33,1.3l5.29 0.94c1.43,0.26 2.78,0.49 4.21,0.74 0.72,0.13 1.41,0.24 2.12,0.38 0.37,0.08 1.83,0.35 2.15,0.35z"/>
   <path class="fil0" d="M41.69 15.47c0,0.74 0.19,1.29 0.91,1.64 0.22,0.1 0.63,0.16 0.92,0.21 0.31,0.05 0.64,0.11 0.97,0.17l19.28 3.43c1.27,0.21 2.59,0.47 3.87,0.68 0.78,0.13 3.34,0.66 4.04,0.66 1.46,0 2.14,-2.18 0.63,-2.99 -0.26,-0.14 -0.58,-0.17 -0.91,-0.23 -0.34,-0.07 -0.63,-0.12 -0.97,-0.18 -0.67,-0.12 -1.27,-0.22 -1.93,-0.34 -0.35,-0.07 -0.63,-0.12 -0.97,-0.17 -2.22,-0.37 -4.55,-0.84 -6.78,-1.2 -1.91,-0.32 -3.9,-0.73 -5.81,-1.04 -2.55,-0.42 -5.19,-0.95 -7.74,-1.37 -0.68,-0.11 -1.26,-0.22 -1.94,-0.34l-1.45 -0.26c-0.64,-0.11 -1.08,-0.12 -1.62,0.34 -0.23,0.19 -0.5,0.66 -0.5,0.99z"/>
   <path class="fil0" d="M40.2 23.88c0,0.68 0.39,1.19 0.85,1.44 0.3,0.16 0.52,0.17 0.9,0.24 0.3,0.05 0.65,0.11 0.97,0.17l3.86 0.69c6.41,1.08 12.97,2.32 19.41,3.44 0.61,0.1 1.28,0.22 1.93,0.35l1.98 0.34c0.8,0 1.58,-0.74 1.58,-1.41 0,-0.49 0.02,-0.72 -0.31,-1.17 -0.5,-0.66 -1.58,-0.71 -2.55,-0.87 -2.52,-0.42 -5.14,-0.95 -7.67,-1.37 -1.29,-0.21 -2.54,-0.45 -3.84,-0.67l-1.9 -0.34c-1.9,-0.32 -3.86,-0.72 -5.76,-1.03 -0.97,-0.16 -7.28,-1.34 -7.74,-1.34l-0.26 0c-0.77,0 -1.45,0.77 -1.45,1.53z"/>
  </g>
 </g>
</svg>
