<?xml version="1.0" encoding="UTF-8"?>
<!DOCTYPE svg PUBLIC "-//W3C//DTD SVG 1.1//EN" "http://www.w3.org/Graphics/SVG/1.1/DTD/svg11.dtd">
<!-- Creator: CorelDRAW -->
<svg xmlns="http://www.w3.org/2000/svg" xml:space="preserve" width="279px" height="299px" version="1.1" style="shape-rendering:geometricPrecision; text-rendering:geometricPrecision; image-rendering:optimizeQuality; fill-rule:evenodd; clip-rule:evenodd"
viewBox="0 0 97.33 104.18"
 xmlns:xlink="http://www.w3.org/1999/xlink"
 xmlns:xodm="http://www.corel.com/coreldraw/odm/2003">
 <defs>
  <style type="text/css">
   <![CDATA[
    .fil0 {fill:white}
   ]]>
  </style>
 </defs>
 <g id="Слой_x0020_1">
  <metadata id="CorelCorpID_0Corel-Layer"/>
  <path class="fil0" d="M80.78 0l-76.24 0c-2.01,1.39 -3.76,1.92 -4.29,4.95l-0.13 80.82c0,5.86 -1.22,12.54 4.03,14.15 2.58,0.79 33.48,0.7 35.41,-0.07 1.67,-1.42 1.28,-2.09 0.8,-3.88 -4.85,-2.25 -27.41,0.69 -34.97,-0.89 -0.66,-4.11 -0.18,-76.64 -0.18,-82.96 0,-7.23 -0.7,-7.08 3.17,-7.03 12.11,0.18 69.46,-0.49 71.85,0.3 0.88,1.92 0.36,30.23 0.36,36.37 -0.01,4.4 -1.18,8.8 4.25,7.23 1.55,-2.9 0.75,-32.9 0.77,-40.47 0.02,-6.23 -0.7,-6.26 -4.83,-8.52zm-62.94 44.52c-1.34,-1.21 -2.35,-2.79 -4.33,-0.46 0.23,1.57 2.85,4.33 4.33,4.89 1.36,-0.59 6.73,-4.87 7.06,-6.07 0.65,-2.37 -1.61,-2.53 -3.22,-1.35 -1.19,0.87 -2.25,2.2 -3.84,2.99zm18.42 25.11c8.62,0 13.2,1.25 10.86,-4.6 -2.2,-0.69 -8.06,-0.52 -10.92,-0.43 -4.46,0.14 -4.3,5.03 0.06,5.03zm-21.11 -5.42c0,9.82 -0.86,8.09 5.39,8.09 6.25,0 5.39,1.7 5.39,-8.09 0,-2.21 -1.77,-1.38 -8.53,-1.38 -1.84,0 -2.25,-0.5 -2.25,1.38zm0 -44.9c0,10.16 -2.09,8.12 8.65,8.12 2.66,0 2.13,1.28 2.13,-8.12 0,-2.21 -2.6,-1.35 -9.32,-1.35 -1.33,0 -1.46,0.13 -1.46,1.35zm49.55 26.67c2.07,-6.04 -3.91,-4.57 -13.63,-4.57 -2.84,0 -17.39,-0.57 -18.66,0.56 -0.86,0.76 -1.08,2.36 -0.36,3.49 0.82,1.28 2.32,0.99 4.19,0.97 5.89,-0.07 25.69,0.51 28.46,-0.45zm0.94 -21.53c1.9,-1.69 1.47,-4.64 -2.41,-4.73 -4.14,-0.09 -27.82,-0.21 -28.93,0.35 -2.12,1.08 -2.06,4.67 2.37,4.76 4.91,0.1 27.04,0.33 28.97,-0.38zm7.39 48.54c5.3,-1.23 9.59,2.68 10.52,6.81 1.22,5.43 -2.54,9.73 -6.61,10.73 -11.65,2.86 -16.04,-14.72 -3.91,-17.54zm-2.12 31.19l6.51 0c1.35,-1.49 1.22,-2.66 1.19,-5.37l4.34 -1.69c1.42,1.46 2.02,2.85 4.5,3.12 1.82,-0.64 4.64,-3.36 5.01,-5.49 -0.52,-1.88 -1.51,-2.45 -2.77,-3.59l1.81 -4.35c3.32,0.05 3.94,0.37 5.83,-1.6l0 -5.61c-1.95,-2.04 -2.34,-1.54 -5.62,-1.69l-1.57 -4.27c1.07,-1.41 2.86,-2.11 3.11,-4.49 -0.72,-1.69 -3.72,-4.8 -5.8,-5.01 -1.36,0.73 -2.19,1.93 -2.97,2.98l-4.59 -1.96c0.03,-2.82 1.54,-7.82 -8.2,-5.44 -1.95,4.18 1.72,5.34 -5.43,6.76 -0.83,-1.14 -1.87,-2.5 -3.51,-3.15 -2.21,0.36 -4.84,3.08 -5.56,4.93 0.26,2.24 1.54,3 2.8,4.03 -2.42,7.02 -2.4,3.16 -7.16,4.91 -0.71,2.1 -0.73,5.76 -0.08,7.84 1.78,0.61 2.27,0.55 4.61,0.54 1.27,1.05 1.45,3.02 2.06,4.23 -2.57,3.33 -4.99,3.56 -1.02,7.49 3.15,3.12 3.84,2.76 7.07,-0.74l4.28 1.97c-0.06,3.05 -0.49,3.96 1.16,5.65z"/>
 </g>
</svg>
