<?xml version="1.0" encoding="UTF-8"?>
<!DOCTYPE svg PUBLIC "-//W3C//DTD SVG 1.1//EN" "http://www.w3.org/Graphics/SVG/1.1/DTD/svg11.dtd">
<!-- Creator: CorelDRAW -->
<svg xmlns="http://www.w3.org/2000/svg" xml:space="preserve" width="325px" height="325px" version="1.1" style="shape-rendering:geometricPrecision; text-rendering:geometricPrecision; image-rendering:optimizeQuality; fill-rule:evenodd; clip-rule:evenodd"
viewBox="0 0 625.04 625.09"
 xmlns:xlink="http://www.w3.org/1999/xlink"
 xmlns:xodm="http://www.corel.com/coreldraw/odm/2003">
 <defs>
  <style type="text/css">
   <![CDATA[
    .fil0 {fill:white}
   ]]>
  </style>
 </defs>
 <g id="Слой_x0020_1">
  <metadata id="CorelCorpID_0Corel-Layer"/>
  <path class="fil0" d="M88.43 139.59l51.03 -51.21 34.7 34.54c14.87,14.81 20.34,3.57 46.42,-8.61 8.02,-3.75 16.08,-6.97 24.81,-9.79 30.7,-9.9 30.7,-2.73 30.7,-38.58 0,-10.56 -0.73,-24.12 0.13,-34.3 18.82,-0.71 52.25,-0.24 72.52,-0.04 1.01,9.61 0.15,24.25 0.15,34.34 0,11.03 -1.89,23.61 4.89,29.79 4.5,4.11 18.36,6.33 25.82,8.81 8.94,2.97 16.45,5.87 24.82,9.78 25.62,11.95 31.78,23.46 46.4,8.6 5.86,-5.95 11.41,-11.39 17.28,-17.32l17.33 -17.12 51.24 51.01c-2.19,2.82 -5.94,6.15 -8.59,8.81l-25.94 25.94c-6.49,6.42 -10.38,13.14 -3.51,23.89 8.94,14 16.53,31.29 21.87,47.31 2.47,7.41 4.79,21.3 8.78,25.82 5.94,6.75 19.11,4.88 29.82,4.88 10.42,0 24.3,-0.78 34.29,0.12l0.09 72.52c-9.81,0.98 -24.16,0.15 -34.38,0.15 -10.7,0 -23.92,-1.9 -29.8,4.9 -4.04,4.67 -6.47,18.41 -8.84,25.79 -5.25,16.36 -12.91,32.98 -21.82,47.32 -6.79,10.92 -3.1,17.35 3.48,23.91l25.93 25.95c2.55,2.51 6.65,6.19 8.62,8.68 -2.36,3.34 -32.21,31.98 -38.35,38.5 -3.39,3.6 -9.31,9.84 -12.89,12.65l-34.62 -34.48c-6.44,-6.59 -13.15,-10.2 -23.91,-3.47 -7.24,4.52 -14.24,8.24 -22.44,12.11 -7.92,3.74 -16.17,7.1 -24.86,9.72 -31.6,9.56 -30.71,4.25 -30.71,38.62 0,10.37 0.8,24.4 -0.14,34.31l-72.52 0.1 -0.14 -43.37c0,-10.87 0.38,-17.42 -6.75,-22.19 -3.78,-2.53 -17.19,-5.32 -22.5,-6.96 -13.96,-4.32 -29.42,-10.94 -40.73,-17.56 -5.68,-3.32 -12.37,-9.08 -20.31,-8.16 -7.57,0.88 -13.37,8.67 -17.05,12.33l-29.2 28.98 -51.13 -51.13 16.83 -17.01c5.85,-5.79 11.15,-11.19 16.99,-16.97 15.98,-15.81 4.17,-20.87 -7.38,-45.72 -3.82,-8.23 -6.68,-15.47 -9.74,-24.23 -2.23,-6.37 -5.38,-21.8 -8.07,-25.85 -5.66,-8.51 -14.87,-6.77 -27.32,-6.77l-38.14 -0.07 -0.1 -72.59 51.7 -0.13c9.05,-0.09 13.87,-4.52 16.01,-11.58 8.35,-27.38 7.89,-32.39 23.76,-60.87 3.39,-6.09 8.9,-11.43 6.25,-20.38 -1.94,-6.55 -21.25,-23.9 -26.85,-29.59 -3.94,-4.01 -10.95,-10.11 -13.93,-14.13zm213.82 205.7c-2.93,-0.85 -7.23,-6.33 -12.46,-10.71 -2.35,-1.96 -3.5,-3.8 -5.8,-5.7 -7.36,-6.09 -20.3,-19.16 -28.89,-26.84 -9.73,-8.72 -25.8,-1.52 -25.91,11.78 -0.07,8.46 4.82,10.82 8.1,14.36l5.84 5.67c4.86,4.11 6.25,6.28 11.68,10.74l40.43 37.74c4.28,3.57 11.69,4.81 17.38,1.47 4.38,-2.57 7.19,-7.73 10.14,-12.31l71.05 -108.95c6.75,-12.31 -4.54,-25.98 -17.58,-22.72 -7.17,1.79 -8.35,5.69 -11.84,10.64 -3.09,4.4 -5.83,8.79 -8.84,13.51l-53.3 81.32zm-1.17 -167.51c33.16,-2.36 65.87,6.53 91.54,25.82l11.42 9.7c12.13,11.71 18.99,19.45 27.75,35.65 8.17,15.09 13.77,32.63 15.41,51.52 6.77,77.77 -52.27,141.11 -122.92,146.82 -78.34,6.33 -140.22,-52.17 -146.51,-122.77 -6.89,-77.45 52.88,-141.74 123.31,-146.74zm-0.07 -31.44c-32.73,1.91 -66.54,15.48 -90.6,34.66 -44,35.08 -67.76,85.6 -64.07,143.54 2.11,33.02 15.45,65.8 34.6,90.08 1.68,2.13 3.05,3.63 4.6,5.66 6.06,7.95 13.65,14.07 20.99,20.61 1.96,1.75 3.69,3.08 5.66,4.62 11.14,8.66 26.89,17.23 40.32,22.47 21.64,8.43 46.68,12.19 71.78,10.74 87.16,-5.03 161,-83.16 154.43,-177.74 -2.33,-33.54 -15.16,-66.07 -34.7,-90.52l-31.24 -30.88c-3.76,-2.94 -8.25,-6.01 -12.51,-8.6 -8.19,-4.99 -17.58,-10.11 -27.78,-13.87 -23.15,-8.55 -44.76,-12.33 -71.48,-10.77zm-56.37 -74.64c-2.51,1.42 -10.95,3.67 -14.41,4.84 -4.83,1.63 -9.36,3.37 -13.9,5.3l-26.18 12.41c-4.06,-3.39 -7.58,-7.39 -11.36,-11.18 -3.99,-3.99 -7.54,-7.56 -11.56,-11.51 -14.87,-14.63 -24.61,-30.9 -41.08,-14.54l-68.85 68.85c-3.39,3.4 -8.15,8.12 -6.81,16.28 1.25,7.63 15.19,19.36 20.71,24.8 4.01,3.94 7.6,7.52 11.53,11.54 3.55,3.63 8.51,7.89 11.51,11.71l-12.42 26.18 -10.16 28.32c-10.7,0.75 -23.64,0.12 -34.59,0.12 -9.81,0 -24.28,-1.62 -31.1,3.3 -7.43,5.37 -5.76,18.22 -5.76,29.19l0 69.81c0,10.96 -1.85,23.85 5.39,29.54 7.07,5.56 20.79,3.6 30.83,3.6 10.75,0 24.91,-0.79 35.23,0.14l10.14 28.32 12.42 26.15 -22.71 22.92c-4,3.96 -7.57,7.5 -11.55,11.51 -3.13,3.14 -8.39,7.17 -9.48,13.64 -1.82,10.81 9.37,18.82 18.06,27.41l45.76 45.84c8.98,9.14 16.83,19.96 27.77,18.4 7.59,-1.09 19.78,-15.65 25.19,-21.05l23.08 -22.87c8.29,3.95 16.36,8.46 25.55,12.34l28.73 10.36c1.97,18.61 -3.38,56.15 3.49,65.67 5.39,7.44 18.15,5.78 29.15,5.78l69.82 0c11.12,0 23.33,2.1 29.43,-5.51 5.69,-7.09 3.69,-20.67 3.69,-30.71 0,-10.61 -0.82,-25.1 0.16,-35.23l28.33 -10.15 26.14 -12.41c4.95,4.06 27.43,27.49 34.42,34.25 8.03,7.76 16.39,16.31 29.58,3 3.98,-4.01 7.54,-7.53 11.53,-11.54l57.33 -57.33c3.37,-3.34 8.07,-8.1 6.82,-16.25 -1.2,-7.76 -15.24,-19.26 -20.72,-24.83 -7.61,-7.76 -15.92,-15.17 -23.02,-23.24l12.43 -26.15c3.03,-6.83 9.41,-27.05 10.13,-28.31 18.1,-1.72 57.09,3.2 65.63,-3.54 7.93,-6.25 5.82,-17.82 5.82,-29.11l0 -69.81c0,-10.89 1.88,-23.74 -5.43,-29.5 -6.96,-5.48 -20.7,-3.63 -30.79,-3.63 -10.64,0 -25.06,0.82 -35.23,-0.16 -1.4,-2.53 -3.7,-10.97 -4.84,-14.39 -1.58,-4.75 -3.41,-9.44 -5.31,-13.89 -4.02,-9.4 -8.19,-17.58 -12.59,-25.99l34.1 -34.31c8.16,-8.15 16.47,-16.72 3.64,-29.56l-68.87 -68.85c-3.21,-3.33 -7.92,-8.2 -15.95,-7.24 -6.8,0.82 -10.8,6.14 -13.92,9.27l-34.76 34.57c-2.9,-0.68 -9.47,-4.84 -12.89,-6.49 -10.07,-4.86 -16.75,-7.35 -27.16,-11.23 -3.89,-1.45 -11.44,-3.21 -14.41,-4.85 -1.78,-18.34 3.17,-56.5 -3.48,-65.68 -5.48,-7.57 -17.97,-5.77 -29.17,-5.77 -23.27,0 -46.54,0 -69.81,0 -10.93,0 -23.43,-2.05 -29.45,5.47 -5.66,7.07 -3.68,20.7 -3.68,30.75 0,10.97 0.71,24.59 -0.14,35.23z"/>
 </g>
</svg>
