<?xml version="1.0" encoding="UTF-8"?>
<!DOCTYPE svg PUBLIC "-//W3C//DTD SVG 1.1//EN" "http://www.w3.org/Graphics/SVG/1.1/DTD/svg11.dtd">
<!-- Creator: CorelDRAW -->
<svg xmlns="http://www.w3.org/2000/svg" xml:space="preserve" width="368px" height="340px" version="1.1" style="shape-rendering:geometricPrecision; text-rendering:geometricPrecision; image-rendering:optimizeQuality; fill-rule:evenodd; clip-rule:evenodd"
viewBox="0 0 101.2 93.39"
 xmlns:xlink="http://www.w3.org/1999/xlink"
 xmlns:xodm="http://www.corel.com/coreldraw/odm/2003">
 <defs>
  <style type="text/css">
   <![CDATA[
    .fil0 {fill:white}
   ]]>
  </style>
 </defs>
 <g id="Слой_x0020_1">
  <metadata id="CorelCorpID_0Corel-Layer"/>
  <path class="fil0" d="M5.43 71.8c-0.05,-0.02 -0.1,-0.05 -0.16,-0.07 -0.11,0.27 -0.24,0.48 -0.38,0.7 1.44,0.89 1.3,1.49 0.99,2.76 -0.05,0.22 -0.11,0.47 -0.17,0.76 -0.31,1.68 -0.06,3.01 0.13,4.03 0.28,1.56 0.47,2.54 -0.91,3.14l0.37 0.67c1.52,-0.78 1.72,-0.64 3.54,1.09 1.22,1.16 2.37,1.5 3.28,1.76 1.35,0.4 2.28,0.68 2.48,2.43l0.67 0c0.16,-1.73 1.1,-2.01 2.46,-2.41 0.92,-0.27 2.09,-0.62 3.32,-1.78 0.22,-0.2 0.38,-0.37 0.53,-0.52 1.1,-1.1 1.37,-1.36 2.99,-0.56l0.38 -0.67c-1.46,-0.64 -1.19,-1.91 -0.9,-3.21 0.09,-0.43 0.19,-0.86 0.19,-1.22 0,-1.78 -0.17,-2.89 -0.28,-3.64 -0.23,-1.54 -0.28,-1.88 1.01,-2.62 -0.14,-0.22 -0.26,-0.44 -0.36,-0.71 -0.07,0.02 -0.11,0.05 -0.16,0.07 -0.23,0.13 -0.44,0.24 -1.01,0.24 -1.02,0 -1.35,-0.35 -1.85,-0.88 -0.19,-0.2 -0.42,-0.45 -0.75,-0.69 -1.47,-1.1 -2.6,-1.47 -3.42,-1.73 -1.34,-0.44 -2.04,-0.66 -2.15,-2.37l-0.66 0c-0.03,0.43 -0.11,0.78 -0.26,1.09 -0.24,0.5 -0.62,0.83 -1.23,1.06 -0.22,0.08 -0.42,0.13 -0.64,0.19 -0.22,0.06 -0.46,0.13 -0.7,0.22 -2,0.75 -2.83,1.56 -3.42,2.13 -0.61,0.59 -1.02,0.98 -1.92,0.98 -0.57,0 -0.78,-0.11 -1.01,-0.24zm79.8 3.81c-0.8,0.32 -1.42,1.08 -1.42,2.31 0,0.99 0.65,1.67 1.47,1.98 0.33,0.12 0.69,0.19 1.04,0.19 0.36,0 0.71,-0.06 1.03,-0.18 0.77,-0.3 1.37,-1.01 1.37,-2.19 0,-1.08 -0.63,-1.8 -1.43,-2.11 -0.33,-0.13 -0.68,-0.19 -1.03,-0.19 -0.36,0 -0.71,0.06 -1.03,0.19zm-5.5 1.8l0 -0.28c0,-1.36 0.66,-2.73 1.7,-3.82 0.62,-0.64 1.38,-1.19 2.22,-1.58 0.84,-0.39 1.77,-0.61 2.72,-0.61 1.47,0 2.99,0.53 4.35,1.84 0.89,0.85 1.41,1.57 1.71,2.37 0.3,0.8 0.36,1.65 0.36,2.78 0,1.93 -0.8,3.47 -2.01,4.53 -0.87,0.76 -1.94,1.28 -3.07,1.53 -1.13,0.24 -2.33,0.21 -3.45,-0.11 -1.61,-0.47 -3.05,-1.56 -3.89,-3.36 -0.64,-1.37 -0.64,-1.98 -0.64,-3.29zm-66.57 2.06c0.54,0.45 1.38,0.61 2.27,0.61l0.15 -0.01c0.44,-0.06 0.88,-0.37 1.21,-0.8 0.34,-0.45 0.56,-1.02 0.56,-1.56 0,-0.09 0,-0.17 -0.01,-0.23 -0.14,-1.04 -0.73,-1.67 -1.45,-1.94 -0.35,-0.13 -0.73,-0.18 -1.11,-0.16 -0.37,0.03 -0.74,0.13 -1.08,0.3 -0.69,0.37 -1.21,1.06 -1.21,2.04 0,0.85 0.26,1.4 0.67,1.75zm-4.45 0.49c-0.26,-0.92 -0.3,-1.87 -0.3,-2.83 0,-0.98 0.31,-1.82 0.74,-2.53 0.42,-0.7 0.95,-1.26 1.43,-1.74 1.53,-1.52 3.42,-1.98 5.19,-1.69 1.07,0.17 2.09,0.62 2.97,1.27 0.88,0.65 1.62,1.5 2.12,2.49 0.85,1.7 0.99,3.79 -0.1,5.92 -0.23,0.45 -0.5,0.87 -0.82,1.24 -0.94,1.11 -2.24,1.85 -3.66,2.13 -1.41,0.28 -2.94,0.1 -4.38,-0.63 -0.51,-0.26 -1,-0.59 -1.48,-0.99 -0.93,-0.79 -1.43,-1.69 -1.71,-2.64zm38.36 -12.9c-0.87,0.8 -1.37,1.93 -1.37,3.24 0,0.59 0.14,1.16 0.36,1.67 0.25,0.61 0.61,1.13 0.98,1.49 0.1,0.1 0.19,0.19 0.28,0.27 0.91,0.76 2.02,1.11 3.11,1.07 1.09,-0.05 2.15,-0.49 2.97,-1.31 0.09,-0.08 0.17,-0.17 0.26,-0.27l0.12 -0.14 0.12 -0.16c0.04,-0.06 0.14,-0.21 0.24,-0.36 0.06,-0.1 0.13,-0.21 0.16,-0.27 0.3,-0.61 0.44,-1.27 0.44,-1.92 0,-0.88 -0.25,-1.74 -0.69,-2.48 -0.43,-0.74 -1.05,-1.35 -1.8,-1.72 -0.49,-0.24 -1.05,-0.38 -1.65,-0.38 -1.46,0 -2.68,0.47 -3.53,1.27zm-5 6.29c-0.38,-1.14 -0.44,-2.35 -0.44,-3.84 0,-1.02 0.26,-2.05 0.73,-3 0.69,-1.39 1.82,-2.64 3.21,-3.53 1.38,-0.9 3.02,-1.45 4.73,-1.45 1.15,0 2.33,0.25 3.49,0.82l0.29 0.14c0.4,0.19 0.8,0.38 1.19,0.67 0.48,0.36 0.84,0.65 1.18,0.99 0.33,0.33 0.63,0.7 0.98,1.21 1.3,1.85 1.74,3.99 1.45,6.03 -0.29,2.1 -1.36,4.09 -3.06,5.55l-0.12 0.1c-0.17,0.15 -0.21,0.19 -0.46,0.37 -1.64,1.17 -3.61,1.69 -5.54,1.56 -1.94,-0.12 -3.83,-0.88 -5.3,-2.24 -1.25,-1.16 -1.94,-2.22 -2.33,-3.38zm9.06 -48.65c0.48,0.94 0,2.13 -0.54,3.44 0.84,-0.9 1.82,-2.02 2.69,-3.01 0.79,-0.91 1.49,-1.71 1.9,-2.14 -0.81,0 -1.62,0 -2.43,0l-0.51 0.01c-1.36,0.03 -2.25,0.05 -2.89,-1.15 -0.5,-0.94 -0.03,-1.98 0.34,-2.81 0.05,-0.12 0.1,-0.24 0.16,-0.38l0.02 -0.05 -2.71 2.88c-0.18,0.19 -0.29,0.34 -0.39,0.49 -0.13,0.17 -0.26,0.34 -0.49,0.59 -0.26,0.28 -0.46,0.47 -0.65,0.64 -0.14,0.14 -0.27,0.26 -0.4,0.4l0.07 0c0.85,0 1.71,0 2.57,0l0.43 -0.01c1.31,-0.02 2.26,-0.04 2.83,1.1zm-8.08 3.31c-2.4,0 -4.55,-0.38 -4.55,-2.27 0,-0.96 0.39,-1.33 0.85,-1.77 0.07,-0.07 0.15,-0.14 0.23,-0.22l12.4 -13.76c0.26,-0.3 0.5,-0.52 0.74,-0.76 0.15,-0.14 0.3,-0.28 0.45,-0.44 0.19,-0.19 0.31,-0.37 0.43,-0.53 0.19,-0.27 0.37,-0.51 0.71,-0.79 0.49,-0.39 1.06,-0.59 1.6,-0.59 0.28,0 0.55,0.05 0.79,0.16 0.26,0.11 0.49,0.28 0.67,0.51 0.28,0.34 0.45,0.81 0.45,1.39 0,0.87 -1.41,4.39 -2.31,6.64 -0.24,0.59 -0.43,1.08 -0.58,1.46l-0.22 0.58c-0.15,0.38 -0.3,0.74 -0.42,1.11l0.37 0c1.19,0 2.38,0 3.56,-0.01 2.77,-0.01 3.75,0.78 3.75,1.93 0.01,1.41 -1.79,3.21 -3.15,4.58 -0.44,0.44 -0.83,0.83 -1.08,1.13l-4.08 4.53c-0.6,0.77 -1.81,2.06 -3.04,3.37 -1.19,1.27 -2.39,2.56 -3.06,3.4 -0.88,1.1 -1.63,1.69 -2.26,1.94 -0.53,0.22 -0.99,0.21 -1.38,0.06 -0.39,-0.15 -0.69,-0.43 -0.9,-0.76 -0.28,-0.45 -0.42,-1.01 -0.42,-1.43 0,-0.15 1.04,-2.94 2.05,-5.58 0.6,-1.55 1.19,-3.07 1.57,-3.99l-0.87 0.04c-0.76,0.03 -1.57,0.07 -2.3,0.07zm33.62 43.76l-0.07 -0.04c-0.11,0.27 -0.23,0.5 -0.37,0.72 1.43,0.89 1.28,1.54 1,2.77 -0.12,0.48 -0.26,1.1 -0.26,1.91 0,1.25 0.12,2.2 0.22,2.95 0.23,1.71 0.34,2.56 -0.93,3.06l0.37 0.66c1.75,-0.82 2.17,-0.36 3.04,0.57 0.46,0.51 1.09,1.19 2.44,1.82 0.69,0.32 1.22,0.47 1.65,0.58 0.3,0.08 0.55,0.15 0.8,0.26 0.55,0.23 0.9,0.58 1.12,1.05 0.14,0.29 0.21,0.62 0.25,0.99l0.68 0c0.19,-1.8 1.14,-2.05 2.4,-2.39 0.47,-0.12 1,-0.26 1.51,-0.54 1.32,-0.71 2,-1.37 2.47,-1.84 0.93,-0.91 1.29,-1.27 2.9,-0.5l0.39 -0.69c-1.53,-0.73 -1.17,-2.12 -0.89,-3.23 0.05,-0.18 0.09,-0.35 0.12,-0.5l-0.06 -3.62 -0.11 -0.46c-0.33,-1.41 -0.47,-1.99 0.98,-2.87 -0.14,-0.22 -0.28,-0.44 -0.39,-0.7 -0.06,0.02 -0.11,0.05 -0.15,0.07 -0.24,0.13 -0.45,0.24 -1.02,0.24 -1.01,0 -1.48,-0.5 -1.96,-1.03 -0.13,-0.15 -0.26,-0.29 -0.42,-0.42 -1.38,-1.18 -2.56,-1.53 -3.45,-1.8 -1.37,-0.41 -2.2,-0.66 -2.34,-2.42l-0.65 0c-0.14,1.79 -0.95,2.01 -2.06,2.31 -0.21,0.06 -0.44,0.12 -0.65,0.2 -1.95,0.7 -2.97,1.67 -3.64,2.3 -0.54,0.51 -0.9,0.86 -1.44,0.86 -1.03,0 -1.25,-0.13 -1.48,-0.27zm24.53 1.18l0 0.62 -0.02 0.06c-0.08,0.37 -0.28,0.71 -0.62,1.03 -0.23,0.22 -0.54,0.44 -0.92,0.66 0.02,0.24 0.05,0.41 0.08,0.59 0.05,0.31 0.11,0.62 0.11,1.22l-0.17 3.1c0.43,0.15 0.75,0.35 0.99,0.59 0.36,0.36 0.52,0.78 0.54,1.24 0.01,0.06 0.01,0.15 0,0.21 -0.04,1.01 -0.73,2.11 -1.28,2.98 -0.16,0.26 -0.31,0.49 -0.41,0.69 -1.85,3.38 -2.49,3.08 -3.75,2.46 -0.2,-0.09 -0.43,-0.2 -0.69,-0.29l-0.55 0.4c-1.03,0.76 -2.33,1.71 -3.67,2.01 -0.01,0.79 -0.07,1.39 -0.34,1.86 -0.36,0.65 -0.99,0.96 -2.19,0.96 -0.86,0 -1.49,0.01 -2.03,0.02 -0.52,0.02 -0.99,0.03 -1.26,0.03 -2.54,0 -3.26,-0.36 -3.33,-2.87 -1.3,-0.31 -2.7,-1.32 -3.75,-2.07l-0.46 -0.32c-0.09,0.04 -0.16,0.09 -0.23,0.14 -0.28,0.2 -0.53,0.38 -1.25,0.38 -1.58,0 -2.09,-1.01 -2.63,-2.1 -0.12,-0.25 -0.25,-0.5 -0.39,-0.73 -0.1,-0.17 -0.2,-0.33 -0.31,-0.49 -0.44,-0.7 -0.98,-1.54 -1.21,-2.38 -0.3,-1.13 -0.08,-2.16 1.42,-2.72 -0.01,-0.36 -0.05,-0.65 -0.08,-0.94 -0.05,-0.44 -0.1,-0.89 -0.1,-1.57l0.17 -2.41c-0.83,-0.47 -1.33,-0.89 -1.51,-1.52 -0.19,-0.69 0.07,-1.47 0.8,-2.66 0.38,-0.62 0.7,-1.21 0.99,-1.73 0.29,-0.53 0.54,-0.98 0.8,-1.37 0.92,-1.38 1.73,-1.72 3.57,-0.59 0.58,-0.49 1.22,-0.98 1.91,-1.41 0.71,-0.44 1.47,-0.82 2.26,-1.06 0.05,-2.5 0.59,-2.66 2.53,-2.67l0 -30.89c0,-1.84 -0.6,-3.36 -1.65,-4.41 -1.06,-1.06 -2.58,-1.66 -4.42,-1.66l-4.71 0c-0.05,1.25 -0.25,2.41 -0.53,3.5 -0.32,1.23 -0.75,2.37 -1.18,3.45 -0.28,0.7 -2.04,3.92 -2.48,4.54 -0.36,0.51 -0.82,0.82 -1.3,0.96 -0.3,0.09 -0.61,0.1 -0.9,0.05 -0.3,-0.05 -0.58,-0.16 -0.83,-0.34 -0.37,-0.26 -0.67,-0.66 -0.81,-1.18 -0.26,-0.91 0.14,-1.51 0.5,-2.05l0.04 -0.05c0.53,-0.81 1,-1.63 1.41,-2.45 2.2,-4.52 2.51,-9.33 1.3,-13.67 -1.21,-4.33 -3.94,-8.19 -7.81,-10.76 -0.7,-0.47 -1.44,-0.9 -2.22,-1.28 -2.28,-1.11 -4.94,-1.73 -7.63,-1.83 -2.67,-0.1 -5.36,0.3 -7.7,1.25 -0.81,0.32 -1.69,0.82 -2.51,1.3 -1.29,0.73 -2.46,1.4 -3.38,1.4 -1.02,0 -1.65,-0.63 -1.65,-2.37 0,-0.32 0.19,-0.69 0.55,-1.07 0.78,-0.86 2.61,-2.05 5.1,-3.03 2.47,-0.96 5.6,-1.71 9.05,-1.71 5.01,0 10.68,1.58 15.92,6.42 1.94,1.79 3.76,4.4 5.07,7.24 1.14,2.48 1.88,5.14 1.99,7.6 0.56,-0.01 1.06,-0.02 1.56,-0.03 2.88,-0.07 5.64,-0.14 7.97,1 1.01,0.49 1.88,1.11 2.62,1.86 0.73,0.74 1.34,1.62 1.81,2.64 0.23,0.49 0.48,1.15 0.66,1.84 0.14,0.56 0.24,1.14 0.24,1.67l0 32.06c1.97,0.01 2.49,0.18 2.54,2.67 1.44,0.43 2.62,1.27 3.72,2.07l0.56 0.39c1.39,-1.06 2.26,-0.82 3.1,0.15 0.38,0.43 0.73,1.03 1.13,1.72l0.6 1c0.64,1.08 1.1,1.85 1.24,2.55l0.01 0.06 0 0.04zm-101.19 0.56l0 -0.63 0.01 -0.06c0.13,-0.65 0.54,-1.31 1.08,-2.18 0.22,-0.36 0.46,-0.75 0.73,-1.22l0.18 -0.32c0.35,-0.62 0.66,-1.16 1.01,-1.57 0.8,-0.91 1.67,-1.17 3.06,-0.1l0.56 -0.39c1.1,-0.79 2.28,-1.63 3.72,-2.07 -0.01,-0.61 -0.02,-1.04 0.25,-1.58 0.55,-1.13 1.26,-1.13 2.29,-1.1l0 -32.25c0,-0.74 0.14,-1.41 0.35,-2.02 0.2,-0.59 0.45,-1.11 0.69,-1.57 2.8,-5.36 7.3,-5.29 11.95,-5.2l1.1 0.01c0.06,-0.88 0.23,-1.85 0.46,-2.8 0.37,-1.58 0.9,-3.12 1.29,-4.1 1.24,-3.07 2.36,-4.59 3.28,-5.22 0.51,-0.34 0.98,-0.45 1.39,-0.4 0.44,0.05 0.8,0.26 1.08,0.55 0.43,0.45 0.66,1.12 0.66,1.6 0,0.46 -0.35,1.04 -0.85,1.87 -1.4,2.33 -4.18,6.94 -2.82,14.19 0.48,2.56 1.42,4.82 2.76,6.81 1.33,2 3.07,3.75 5.11,5.26 1.8,1.33 3.62,2.17 5.58,2.67 1.96,0.51 4.08,0.68 6.45,0.68 4.11,0 7.34,-1.88 9.27,-3 0.93,-0.53 1.59,-0.91 2.07,-0.91 0.61,0 1.16,0.18 1.56,0.58 0.36,0.36 0.57,0.87 0.57,1.55 0,1.15 -1.4,1.99 -2.44,2.6l-0.26 0.16c-0.42,0.25 -0.93,0.52 -1.45,0.78 -0.57,0.28 -1.14,0.54 -1.65,0.74 -3.41,1.37 -5.25,1.48 -6.23,1.54 -0.32,0.02 -0.51,0.03 -0.54,0.04 -0.01,0.01 0.03,0.3 0.04,1.09l0.02 0.88c3.48,0 3.71,0.03 3.72,3.8 0.6,0.14 1.27,0.4 1.9,0.7 0.8,0.38 1.56,0.82 2.06,1.12 0.81,0.48 1.43,0.98 2.05,1.47 0.33,0.26 0.66,0.53 1.01,0.78 0.39,-0.29 0.87,-0.6 1.36,-0.81 0.54,-0.24 1.1,-0.36 1.58,-0.24 1.19,0.28 2.51,2.79 3.34,4.39 0.21,0.39 0.39,0.72 0.53,0.95l0.21 0.34c0.47,0.75 1.2,1.9 1.2,2.73 0,0.62 -0.38,1.15 -0.9,1.59 -0.49,0.42 -1.14,0.76 -1.62,0.96 0.04,0.32 0.09,0.63 0.15,0.94 0.11,0.57 0.22,1.17 0.22,1.98l0 2.35c0,0.81 -0.11,1.41 -0.22,1.98 -0.06,0.31 -0.11,0.61 -0.15,0.94 0.14,0.05 0.27,0.11 0.4,0.18 0.36,0.18 0.72,0.41 1.01,0.61 1.96,1.32 1.08,2.73 -0.53,5.3 -0.21,0.34 -0.44,0.71 -0.7,1.14 -0.28,0.46 -0.5,0.84 -0.74,1.27l-0.4 0.7 -0.2 0.37c-0.41,0.78 -0.71,1.37 -1.97,1.37 -0.5,0 -1,-0.14 -1.47,-0.36 -0.38,-0.18 -0.75,-0.41 -1.08,-0.66l-1.41 1.11c-0.94,0.67 -2.03,1.36 -3.16,1.92 -0.81,0.41 -1.64,0.75 -2.47,0.98 0,2.03 -0.04,3.85 -2.33,3.85 -1.53,0 -2.61,0.01 -3.52,0.03 -2.45,0.03 -3.76,0.06 -4.55,-0.28 -1.13,-0.49 -1.12,-1.37 -1.1,-3.27l0 -0.27c-2.33,-0.41 -4.64,-2.22 -6.22,-3.46 -0.32,-0.25 -0.6,-0.47 -0.84,-0.65 -1.1,0.72 -1.9,1.12 -2.65,1.09 -0.9,-0.04 -1.56,-0.63 -2.27,-1.96l-2.28 -3.97c-1.72,-3.14 -1.39,-3.35 0.67,-4.59 0.24,-0.15 0.49,-0.3 0.76,-0.47 -0.3,-0.98 -0.45,-2.55 -0.45,-4.09 0,-1.53 0.15,-3.08 0.45,-4.06 -0.29,-0.18 -0.56,-0.34 -0.8,-0.48 -2.08,-1.22 -2.52,-1.49 -0.42,-4.98 0.54,-0.89 0.98,-1.71 1.36,-2.4 0.39,-0.71 0.71,-1.3 1.03,-1.78 1.19,-1.76 2.08,-1.89 4.59,-0.27 0.21,-0.15 0.45,-0.35 0.72,-0.57 1.52,-1.22 3.87,-3.11 6.35,-3.53 0,-1.77 0.03,-2.66 0.56,-3.22 0.55,-0.57 1.37,-0.57 2.96,-0.57l0 -0.48c0.01,-1.05 0.01,-1.51 -0.04,-1.6 -0.06,-0.08 -0.04,0.09 -0.21,0.09 -0.32,0 -0.75,-0.01 -1.32,-0.1 -3.9,-0.68 -7.3,-2.14 -10.16,-4.29 -2.94,-2.21 -5.32,-5.14 -7.1,-8.68 -0.53,-1.05 -1.17,-2.74 -1.64,-4.49 -0.32,-1.2 -0.56,-2.44 -0.62,-3.53l-3.94 0c-1.84,0 -3.36,0.6 -4.41,1.66 -1.06,1.05 -1.66,2.57 -1.66,4.41l0 30.88c1.05,-0.03 1.88,-0.01 2.38,1.28 0.19,0.49 0.18,0.92 0.17,1.4 0.78,0.24 1.54,0.62 2.24,1.06 0.69,0.43 1.34,0.92 1.91,1.41 1.83,-1.13 2.63,-0.81 3.59,0.63 0.26,0.39 0.53,0.87 0.85,1.44 0.29,0.52 0.62,1.11 1,1.74 0.73,1.2 0.92,1.99 0.68,2.66 -0.22,0.6 -0.73,0.99 -1.48,1.41 0.01,0.33 0.05,0.57 0.08,0.81 0.05,0.38 0.11,0.76 0.11,1.39l-0.17 2.72c1.48,0.55 1.7,1.58 1.4,2.71 -0.23,0.85 -0.79,1.72 -1.26,2.46 -0.11,0.18 -0.22,0.35 -0.34,0.53 -0.1,0.17 -0.21,0.39 -0.33,0.62 -0.5,1 -1.05,2.09 -2.41,2.09 -0.95,0 -1.19,-0.18 -1.47,-0.39 -0.05,-0.05 -0.11,-0.09 -0.21,-0.14l-0.43 0.31c-1.05,0.75 -2.48,1.77 -3.78,2.08 -0.02,0.68 -0.1,1.28 -0.35,1.75 -0.34,0.68 -0.94,1.08 -1.97,1.08 -1.01,0 -1.71,0.01 -2.31,0.02 -0.56,0.01 -1.05,0.02 -1.31,0.02 -2.79,0 -3.17,-0.35 -3.2,-2.86 -1.33,-0.31 -2.68,-1.29 -3.72,-2.04l-0.48 -0.35 -0.13 0.07c-0.94,0.47 -2.45,1.21 -3.56,-0.89 -0.26,-0.49 -0.57,-0.99 -0.88,-1.5 -0.65,-1.04 -1.29,-2.09 -1.51,-3.02 -0.27,-1.16 0.03,-2.09 1.47,-2.57 -0.02,-0.28 -0.05,-0.5 -0.08,-0.72 -0.05,-0.37 -0.11,-0.76 -0.11,-1.39l0.18 -2.8c-0.38,-0.22 -0.68,-0.44 -0.9,-0.66 -0.34,-0.32 -0.54,-0.65 -0.63,-1.01l-0.01 -0.07 0 -0.06zm36.05 -13.2c-0.11,-0.07 -0.22,-0.15 -0.36,-0.23 -0.18,0.4 -0.42,0.82 -0.64,1.17l-0.19 0.33c-0.1,0.17 -0.2,0.33 -0.31,0.49 -0.15,0.24 -0.31,0.49 -0.44,0.73 2.44,1.31 2.38,1.54 1.87,3.62 -0.06,0.24 -0.13,0.52 -0.22,0.92 -0.27,1.2 -0.26,2.03 -0.24,3.15l0.01 0.98c0,1.27 0.27,2.12 0.47,2.75 0.48,1.52 0.67,2.13 -1.84,3.54l1.47 2.78c0.22,-0.1 0.42,-0.23 0.62,-0.35 0.88,-0.56 1.65,-1.04 2.99,-0.04 0.32,0.24 0.54,0.47 0.8,0.74 0.38,0.4 0.86,0.91 1.89,1.64 2.09,1.48 3.5,1.77 4.44,1.96 1.64,0.33 2.19,0.44 2.25,3.4l3.16 0 0 -0.99c0,-1.6 1.12,-1.97 2.85,-2.55 1.62,-0.54 3.87,-1.29 6.15,-3.66 1.53,-1.59 2.18,-1.24 3.97,-0.26l0.07 0.04 0.36 -0.62c0.41,-0.72 0.89,-1.55 1.13,-2.08l-0.26 -0.13c-0.9,-0.46 -1.77,-0.9 -1.77,-2.26 0,-0.55 0.16,-1.12 0.31,-1.68 0.1,-0.35 0.19,-0.69 0.23,-0.99 0.47,-3.48 -0.02,-5.26 -0.33,-6.37 -0.47,-1.7 -0.61,-2.21 1.83,-3.55 -0.12,-0.3 -0.28,-0.55 -0.44,-0.82 -0.12,-0.18 -0.23,-0.37 -0.36,-0.59 -0.13,-0.25 -0.28,-0.51 -0.42,-0.76l-0.32 -0.57c-0.3,0.12 -0.54,0.28 -0.77,0.41 -1.03,0.63 -1.69,1.04 -3.33,-0.66 -0.37,-0.39 -0.53,-0.51 -0.84,-0.75l-0.25 -0.2c-2.73,-2.17 -4.48,-2.57 -5.57,-2.83 -1.65,-0.37 -2.18,-0.5 -2.24,-3.32l-3.16 0 0 1.18c0,1.49 -1.04,1.81 -2.65,2.3 -1.4,0.43 -3.33,1.02 -5.3,2.86 -0.15,0.13 -0.29,0.29 -0.43,0.46 -0.6,0.66 -1.26,1.4 -2.35,1.4 -0.99,0 -1.4,-0.28 -1.84,-0.59z"/>
 </g>
</svg>
