<?xml version="1.0" encoding="UTF-8"?>
<!DOCTYPE svg PUBLIC "-//W3C//DTD SVG 1.1//EN" "http://www.w3.org/Graphics/SVG/1.1/DTD/svg11.dtd">
<!-- Creator: CorelDRAW -->
<svg xmlns="http://www.w3.org/2000/svg" xml:space="preserve" width="439px" height="400px" version="1.1" style="shape-rendering:geometricPrecision; text-rendering:geometricPrecision; image-rendering:optimizeQuality; fill-rule:evenodd; clip-rule:evenodd"
viewBox="0 0 89.83 81.72"
 xmlns:xlink="http://www.w3.org/1999/xlink"
 xmlns:xodm="http://www.corel.com/coreldraw/odm/2003">
 <defs>
  <style type="text/css">
   <![CDATA[
    .fil0 {fill:white}
   ]]>
  </style>
 </defs>
 <g id="Слой_x0020_1">
  <metadata id="CorelCorpID_0Corel-Layer"/>
  <path class="fil0" d="M74.63 65.99c-0.08,0 -0.14,0 -0.34,0l0 -0.01c-0.32,0 -0.62,-0.05 -0.88,-0.15 -0.28,-0.1 -0.51,-0.27 -0.69,-0.49 -0.2,-0.25 -0.32,-0.55 -0.32,-0.91 0,-0.2 0.04,-0.43 0.14,-0.66 0.13,-0.35 0.32,-0.58 0.53,-0.73 -0.11,-0.08 -0.21,-0.17 -0.3,-0.27 -0.24,-0.31 -0.35,-1.41 -0.38,-2.74 -0.04,-2.03 0,-4.81 0.02,-5.58 0.01,-0.63 0.17,-1.13 0.48,-1.51 0.1,-0.13 0.22,-0.25 0.35,-0.35l-2.06 -0.01 0.01 15.39c1.14,0.02 1.65,0.15 1.99,0.91l0 0c0.13,0.29 0.17,0.62 0.16,1.05l0.6 -0.67 0.04 -0.03c1.49,-1.29 3.07,-1.87 4.58,-1.95 1.17,-0.06 2.29,0.19 3.29,0.65 0.99,0.46 1.87,1.13 2.56,1.93 0.76,0.89 1.3,1.94 1.52,3.02l0.64 0 0.02 -9.71c-0.63,-0.15 -0.86,-0.45 -1.19,-1.11 -0.05,0.12 -0.12,0.24 -0.19,0.34 -0.32,0.46 -0.8,0.78 -1.33,0.88 -0.65,0.12 -3.99,0.08 -6.29,0.06l-0.32 0c0.09,0.11 0.16,0.24 0.23,0.4 0.46,1.09 0.03,1.7 -0.78,2.04 -0.62,0.26 -1.47,0.23 -2.09,0.21zm-21.82 -2.8l0 0.04 13.36 0c0.89,-0.01 1.44,-0.01 1.82,0.31l0 -0.46c0,-0.53 0,-1.07 0,-2.73 0,-1.55 0,-2.18 -0.01,-2.85 -0.01,-1.87 -0.02,-3.75 0.01,-5.6 0.02,-1.19 0.47,-1.83 1.22,-2.19 0.61,-0.3 1.34,-0.32 2.19,-0.32l0 0 8.43 0 0 0c2.32,0 2.37,0.09 3.22,1.62 1.67,3.03 3.32,6.08 4.97,9.11 0.09,0.03 0.2,0.06 0.33,0.11 0.36,0.16 0.7,0.4 0.95,0.72 0.24,0.3 0.41,0.67 0.46,1.09 0.08,0.59 0.05,4.49 0.04,6.89 -0.01,0.47 -0.01,0.78 -0.01,1.64 0,0.64 0.01,1.06 0.02,1.43 0.02,0.6 0.03,1.11 0.01,1.53 -0.12,2.06 -0.79,2.68 -3.9,2.59 -0.29,1.43 -1.1,2.73 -2.22,3.71 -1.32,1.16 -3.07,1.88 -4.9,1.85 -1.35,-0.02 -2.64,-0.44 -3.72,-1.1 -1.15,-0.71 -2.08,-1.71 -2.6,-2.81 -0.07,-0.15 -0.15,-0.31 -0.22,-0.48 -0.38,0.08 -0.85,0.06 -1.43,0.03 -0.19,-0.01 -0.41,-0.02 -0.71,-0.02l-7.16 0c-0.38,0 -0.53,0 -0.67,0.01 -0.24,0 -0.46,0.01 -0.65,0 -1.12,-0.03 -1.64,-0.24 -1.78,-1.21l-7.61 0c-0.32,1.46 -1.12,2.78 -2.23,3.77 -1.26,1.12 -2.93,1.81 -4.77,1.81 -1.84,0 -3.53,-0.71 -4.81,-1.84 -1.11,-0.98 -1.92,-2.29 -2.23,-3.74 -1.55,0.01 -3.11,0 -4.66,0 -0.34,0 0.67,0 -2.53,0 -0.46,0 -0.67,0.01 -0.85,0.01 -0.22,0.01 -0.41,0.01 -0.6,0.01 -1.64,-0.01 -2.01,-0.29 -2,-2.23 0,-0.89 0,-1.78 0,-2.66l0 -1.26 -0.01 0c0,-1.22 -0.01,-1.94 -0.02,-2.54 -0.02,-1.62 -0.03,-2.51 0.17,-3.09 0.38,-1.13 1,-1.12 2.37,-1.12l0.35 0.01 0 -0.01c0.58,0 1.52,0.02 2.48,0.03 1.61,0.03 3.25,0.05 4.68,-0.01 0.58,-0.9 1.83,-2.97 2.81,-4.6 0.46,-0.75 0.85,-1.41 1.17,-1.93l7.28 -11.88 0.02 -14.24 0.37 -0.17 0.01 -4.15 -3.1 -4.98c-1.29,0.92 -2.4,0.88 -3.93,0.83 -0.33,-0.01 -0.7,-0.02 -1.06,-0.02 -0.58,0 -1.09,0 -1.59,-0.08 -0.56,-0.09 -1.08,-0.26 -1.58,-0.61 -0.37,-0.24 -0.75,-0.58 -1.07,-0.98 -0.27,-0.35 -0.51,-0.76 -0.66,-1.23 -0.3,-0.94 -0.25,-3.66 -0.22,-5.44 0.01,-0.35 0.01,-0.64 0.01,-1.11l0 -1.06c-0.01,-1.8 -0.04,-4.93 0.05,-5.44l0.12 -0.7 11.47 -0.01 0.15 0.66c0.07,0.32 0.08,1.87 0.08,3.3l0.1 -0.01c0.18,-0.01 0.48,0 0.79,0 0.27,0.01 0.56,0.01 0.74,0.01 0.17,-0.13 0.46,-0.22 1.04,-0.22l0.12 -0.01c0.34,0 0.75,-0.01 1.09,0.13 0.08,0.03 0.14,0.06 0.2,0.09l0.22 -0.01c1.3,-0.01 2.68,0.01 4.08,0.03 1.94,0.02 3.9,0.05 5.64,-0.02 0.09,-0.12 0.23,-0.24 0.44,-0.33l0.17 -0.07 6.45 0 0.03 0.83c0.05,1.35 0.06,2.05 -0.24,2.58 -0.42,0.71 -0.98,0.76 -2.08,0.76l-1.96 0c-1.28,0.01 -1.55,-0.16 -1.78,-0.56l-0.99 -0.01c-0.14,0.1 -0.35,0.2 -0.65,0.33l-0.16 0.07 -0.17 0c-1.45,0 -2.52,0.14 -3.41,0.46l0 -0.01c-0.88,0.32 -1.62,0.82 -2.42,1.53 -0.66,0.59 -1.2,1.3 -1.59,2.17 -0.41,0.89 -0.68,1.96 -0.77,3.26l-0.05 0.58 -0.83 0.26 1.25 1.54c0.06,0.07 0.12,0.13 0.21,0.25l8.94 11.07 0.13 0.15c0.21,0.23 0.42,0.46 0.57,0.75l0.21 0.39c-1.36,2.55 -2.71,5.08 -4.08,7.61l0 0c-0.4,0.74 -1.07,1.99 -1.75,3.24 -1.35,2.53 -2.75,5.12 -4.11,7.53 -0.17,0.29 -0.33,0.59 -0.49,0.9l0 8.52zm-3.97 -0.68l-0.01 -0.5 -0.66 1.22 0.68 0 0 -0.04c0,-0.33 0,-0.5 -0.01,-0.68zm3.97 -24.22l0 0 0 0.07c0.43,-0.7 0.79,-1.27 1.09,-1.73 0.58,-0.92 0.87,-1.38 0.92,-1.58l0 -0.01c0.03,-0.07 -0.06,0.03 -0.14,-0.08 -0.16,-0.21 -0.36,-0.49 -0.59,-0.89l-1.26 -2.03c0.02,1.19 0.01,2.92 -0.01,4.36 0,0.75 -0.01,1.41 -0.01,1.89zm-7.37 34.55c-0.2,-0.03 -0.41,-0.02 -0.61,0.04 -0.79,0.27 -1.18,0.79 -1.25,1.33l0 0c-0.03,0.24 0,0.48 0.07,0.71 0.07,0.24 0.19,0.46 0.35,0.65 0.38,0.44 0.98,0.69 1.73,0.49 0.38,-0.1 0.68,-0.34 0.87,-0.66 0.13,-0.2 0.22,-0.43 0.26,-0.67 0.03,-0.24 0.02,-0.48 -0.04,-0.71 -0.09,-0.35 -0.31,-0.68 -0.68,-0.92 -0.21,-0.13 -0.45,-0.22 -0.7,-0.26zm34.26 0.2c-0.34,-0.19 -0.76,-0.27 -1.21,-0.16 -0.73,0.2 -1.11,0.71 -1.2,1.27 -0.04,0.25 -0.03,0.5 0.03,0.74 0.06,0.23 0.16,0.46 0.31,0.65 0.33,0.45 0.91,0.72 1.69,0.54l0.05 -0.01c0.33,-0.09 0.67,-0.35 0.9,-0.7 0.23,-0.34 0.35,-0.78 0.24,-1.24l-0.01 -0.06 -0.01 0c-0.11,-0.4 -0.4,-0.79 -0.79,-1.03zm-0.59 -17.7l-3.49 0 0 4.79 6.08 0c-0.09,-0.15 -0.18,-0.31 -0.27,-0.48l-1.72 -3.17c-0.06,-0.1 -0.15,-0.29 -0.26,-0.49 -0.11,-0.22 -0.24,-0.46 -0.34,-0.65zm-26.67 -42.73l0 0.58c0.19,-0.2 0.37,-0.39 0.57,-0.58l-0.57 0zm-3.23 -0.02l-0.59 0c0.2,0.15 0.4,0.34 0.6,0.56l-0.01 -0.56zm-21.59 -8.88l-2.56 -0.01 -0.01 2.55c0.14,-0.17 0.27,-0.34 0.42,-0.51 0.64,-0.75 1.35,-1.42 2.15,-2.03zm-5.78 2.54l0.01 -2.55 -2.56 0c0.16,0.12 0.32,0.25 0.47,0.38 0.3,0.26 0.59,0.53 0.87,0.81 0.45,0.44 0.85,0.89 1.21,1.36zm-20.7 -2c-0.59,-0.27 -0.96,-0.69 -0.91,-1.35l-0.23 -0.11 0.09 -2.79 8.84 0 0.04 0.51 13.01 0 0.17 -0.5 2.43 -0.01 0.25 0.39 0.07 0.11 13.1 0 0.22 -0.5 8.38 0 0.19 0.58c0.08,0.22 0.15,0.72 0.15,1.15 -0.01,0.39 -0.09,0.79 -0.29,1.06 0.09,0.79 -0.33,1.24 -1,1.51 -0.6,0.23 -1.36,0.19 -2.02,0.16l0 0c-0.16,-0.01 -0.32,-0.01 -0.51,-0.01 -0.24,0 -0.43,0.01 -0.63,0.02 -1.11,0.05 -2.37,0.11 -2.95,-0.69l-2.22 0.31 -0.09 0.11 -0.76 0 -0.21 0.03 -0.01 -0.02c-1.73,0.03 -3.02,0.23 -4.13,0.62 -1.2,0.43 -2.21,1.11 -3.35,2.09 -0.43,0.37 -0.76,0.79 -1.18,1.32l0 0 -0.07 0.09 0 0c-0.6,0.75 -1.06,1.67 -1.39,2.66 -0.35,1.06 -0.55,2.21 -0.58,3.32l-0.03 0.72 -0.47 0.06 0 12.45 0.5 0.17 -0.01 50.78c0.39,0.03 0.77,0.13 1.1,0.45 0.3,0.29 0.45,0.72 0.46,1.12 0.01,0.41 -0.13,0.84 -0.42,1.14 -0.57,0.59 -1.9,0.54 -2.84,0.5 -0.16,-0.01 -0.3,-0.01 -0.48,-0.01 -0.21,0 -0.3,0 -0.4,0 -0.9,0.03 -2.21,0.07 -2.76,-0.53 -0.3,-0.33 -0.42,-0.75 -0.4,-1.15 0.02,-0.42 0.21,-0.82 0.52,-1.11 0.32,-0.3 0.67,-0.4 1.03,-0.42l0 -50.68 0.5 -0.25 0 -12.5 -0.45 -0.15 -0.04 -0.57c-0.07,-0.94 -0.14,-1.7 -0.29,-2.4 -0.15,-0.68 -0.36,-1.32 -0.72,-2.01 -0.6,-1.18 -1.35,-2.21 -2.27,-3.06 -0.91,-0.85 -2,-1.53 -3.29,-2.02 -1.39,-0.53 -2.31,-0.56 -3.62,-0.6 -0.36,-0.02 -0.76,-0.03 -1.15,-0.05l-0.49 -0.03 -0.22 -0.44c-0.1,-0.2 -0.14,-0.33 -0.15,-0.44l-0.06 -0.14 -0.01 -0.12c-0.08,-0.57 -1.1,0.48 -1.73,0.62 -0.21,0.4 -0.34,0.61 -0.89,0.75 -0.3,0.07 -0.7,0.07 -1.5,0.06 -0.18,0 -0.43,0 -1.21,0 -0.18,0 -0.33,0 -0.48,0.01 -0.69,0.03 -1.52,0.07 -2.14,-0.21l0 0zm69 66.91l-7.13 0 0 2.92 7.13 0 0 -2.92zm-4.78 -4.72l-34.58 0 0 6.43 7.43 0.01c0.32,-1.46 1.12,-2.78 2.23,-3.76 1.27,-1.13 2.96,-1.83 4.81,-1.83 1.85,0 3.51,0.69 4.76,1.8 1.11,0.99 1.91,2.31 2.24,3.79l7.56 0 0.01 -0.91c0,-0.11 0,0.21 0,-0.8 0,-0.18 -0.01,-0.31 -0.02,-0.45 -0.04,-0.95 -0.1,-2.06 0.86,-2.56 0.52,-0.27 2.7,-0.23 4.25,-0.21l0.45 0.01 0 -1.52zm-22.51 -5.68l-1.51 2.47 3.2 0c0.12,-0.22 0.26,-0.5 0.39,-0.75 0.08,-0.16 0.16,-0.31 0.26,-0.49l0.42 -0.76c0.15,-0.28 0.3,-0.56 0.52,-0.95 1.04,-1.84 2.07,-3.77 3.11,-5.72 0.83,-1.55 1.66,-3.1 2.54,-4.71l6.57 -12.08c0.04,-0.08 0.1,-0.18 0.17,-0.31l0.2 -0.32c-0.66,-0.06 -1.37,-0.11 -1.48,-0.09 -0.02,0 -2.01,3.45 -2.73,4.68l-0.25 0.43c-0.65,1.08 -1.43,2.34 -2.22,3.61 -0.77,1.25 -1.55,2.51 -2.34,3.83 -1.22,2.43 -3.39,5.05 -4.58,7.47 -0.45,0.71 -0.76,1.23 -1.08,1.75 -0.42,0.69 -0.83,1.37 -1.19,1.94zm14.66 -27.33l0.17 0 -0.78 -0.98 0.61 0.98zm-14.3 -22.59c0.53,0.27 1.04,0.84 1.51,1.44l0 -3.62 -5.49 -0.02c-0.03,2.11 -0.01,4.26 0,6.38l0.02 2.14c0,1.79 1.01,1.77 2.7,1.74 0.39,-0.01 0.8,-0.02 1,-0.02l0 0 0.31 0.01c0.55,0 0.75,0 1.1,-0.28 0.13,-0.1 0.05,-0.23 -0.24,-0.67 -0.2,-0.3 -0.44,-0.67 -0.71,-1.12 -0.28,-0.48 -0.62,-1.02 -0.97,-1.56 -0.26,-0.42 -0.53,-0.84 -0.82,-1.32 -0.05,-0.09 -0.08,-0.14 -0.12,-0.19 -0.38,-0.56 -0.86,-1.27 -0.37,-2.21 0.54,-1.03 1.27,-1.13 2.08,-0.7z"/>
 </g>
</svg>
