<?xml version="1.0" encoding="UTF-8"?>
<!DOCTYPE svg PUBLIC "-//W3C//DTD SVG 1.1//EN" "http://www.w3.org/Graphics/SVG/1.1/DTD/svg11.dtd">
<!-- Creator: CorelDRAW -->
<svg xmlns="http://www.w3.org/2000/svg" xml:space="preserve" width="382px" height="371px" version="1.1" style="shape-rendering:geometricPrecision; text-rendering:geometricPrecision; image-rendering:optimizeQuality; fill-rule:evenodd; clip-rule:evenodd"
viewBox="0 0 145.48 141.27"
 xmlns:xlink="http://www.w3.org/1999/xlink"
 xmlns:xodm="http://www.corel.com/coreldraw/odm/2003">
 <defs>
  <style type="text/css">
   <![CDATA[
    .fil0 {fill:white}
   ]]>
  </style>
 </defs>
 <g id="Слой_x0020_1">
  <metadata id="CorelCorpID_0Corel-Layer"/>
  <path class="fil0" d="M109.03 134.17c-1.84,-6.29 -10.37,-32.15 -10.3,-36.73 0.02,-1.68 5.28,-15.8 6.26,-17.58 1.69,-3.09 13.17,-5.86 16.98,-6.5l16.93 57.77 -4.95 1.11c-2.1,-8.4 -5.5,-17.88 -8,-26.61 -6.93,-24.21 -8.05,-33.58 -17.88,-14.47 -3.26,6.32 -3.74,6.03 -1.7,13.54 2.62,9.62 5.54,18.67 7.86,28.25l-5.2 1.22zm-72.06 -35.72c5.88,-1.85 7.55,7.18 2.73,8.5 -5.88,1.61 -8.35,-6.72 -2.73,-8.5zm-1.8 -6.01c-13.4,3.85 -7.99,24.72 6.16,20.82 13.68,-3.77 8.32,-24.99 -6.16,-20.82zm52.73 -74.27c-3.19,-11.5 15.14,-17.12 18.27,-4.66 3.06,12.19 -15.04,16.29 -18.27,4.66zm6.34 -17.86c-21.08,4.23 -14.51,35.66 7,30.76 7.49,-1.7 13.39,-9.66 11.23,-19.11 -1.67,-7.29 -9.32,-13.43 -18.23,-11.65zm-58.56 88.59c8.12,-1.83 15.07,4.71 16.31,10.75 1.78,8.61 -4.18,15.53 -10.92,16.69 -18.53,3.2 -23.37,-23.38 -5.39,-27.44zm22.82 17.4c2.03,-12.19 -6.06,-21.57 -16.11,-23.7 -11.92,-2.52 -22.81,6.37 -24.21,16.36 -3.9,27.91 36.03,33.16 40.32,7.34zm-23.07 -26.07c12.71,-2.42 23.68,8.6 25.32,18.79 2.18,13.55 -7.6,23.93 -18.49,25.99 -28.27,5.37 -38.56,-38.75 -6.83,-44.78zm-26.07 26.07c2.03,14.97 15.04,27.6 32.57,25.33 37.47,-4.85 31.97,-61.66 -7.19,-57.72 -14.56,1.46 -27.69,15.39 -25.38,32.39zm-2.77 -0.68c-0.62,-9.82 2.51,-18.42 7.68,-23.57 5.07,-5.05 10.52,-10.17 21.04,-10.92 32.23,-2.29 43.88,34.75 27.14,52.27 -22.14,23.16 -54.31,6.61 -55.86,-17.78zm58.91 23.57c16.2,-16.27 12.88,-40.66 1.75,-51.63 -3.7,-3.64 -5.81,-6.36 -11.49,-9.02 -42.95,-20.19 -75.75,36.24 -41.48,64.03 8.68,7.04 17.88,8.17 31.75,8.27 11.66,0.09 28.82,0.99 39.88,-0.12 0.63,-8.17 -0.77,-5.97 -9.13,-6 -5.55,-0.02 -11.09,-0.16 -16.63,-0.23l5.35 -5.3zm40.3 -58.06c-1.23,-1.81 -8.44,-25.28 -8.46,-27.76 -0.03,-3.9 2.82,-3.67 6.62,-4.85 4.07,-1.25 5.93,-2.36 7.76,2.09l7.89 26.52 -13.81 4zm-39.6 3.34c3.98,0.91 14.68,-2.8 18.84,-4.31 7.01,-2.54 5.52,-9.67 8.7,-15.04 1.6,3.94 2.82,8.94 4.05,13.07 2.13,7.12 2.24,6.43 -0.26,13.09 -5.83,15.5 -6.74,12.66 -3.5,24.83 2.32,8.69 4.79,17.37 7.66,25.83 1.4,4.13 2.21,8.88 7.17,8.93 4.15,0.04 9.75,-2.16 11.29,-4.86 1.99,-4.35 -6.16,-27.05 -7.97,-34.41 -0.98,-3.96 0.94,-6.3 2.62,-9.34 3.24,5.31 11.28,40.28 14.26,44.42 2.78,3.87 10.1,1.84 13.92,-0.41 4.72,-2.79 1.59,-9.24 0.14,-14.31 -1.43,-5.05 -2.86,-9.79 -4.32,-14.81l-17.92 -59.28c-3.92,-12.11 -4.18,-20.15 -19.95,-15.13 -7,2.24 -8.27,2.71 -10.36,9.49 -6.9,22.27 -3.95,20.57 -14.31,23.92 -5.6,1.81 -11.92,1.96 -10.06,8.32z"/>
 </g>
</svg>
