<?xml version="1.0" encoding="UTF-8"?>
<!DOCTYPE svg PUBLIC "-//W3C//DTD SVG 1.1//EN" "http://www.w3.org/Graphics/SVG/1.1/DTD/svg11.dtd">
<!-- Creator: CorelDRAW -->
<svg xmlns="http://www.w3.org/2000/svg" xml:space="preserve" width="351px" height="351px" version="1.1" style="shape-rendering:geometricPrecision; text-rendering:geometricPrecision; image-rendering:optimizeQuality; fill-rule:evenodd; clip-rule:evenodd"
viewBox="0 0 667.1 667.1"
 xmlns:xlink="http://www.w3.org/1999/xlink"
 xmlns:xodm="http://www.corel.com/coreldraw/odm/2003">
 <defs>
  <style type="text/css">
   <![CDATA[
    .fil0 {fill:white}
   ]]>
  </style>
 </defs>
 <g id="Слой_x0020_1">
  <metadata id="CorelCorpID_0Corel-Layer"/>
  <path class="fil0" d="M450.44 293.57l-365.61 0 0 343.63 365.61 0 0 -343.63zm-18.01 329.59l-25.94 0 0 -29.9 29.9 0 0 29.9 -3.96 0zm-43.95 0l-25.93 0 0 -29.9 29.9 0 0 29.9 -3.97 0zm-43.94 0l-25.94 0 0 -29.9 29.9 0 0 29.9 -3.96 0zm-43.95 0l-25.93 0 0 -29.9 29.9 0 0 29.9 -3.97 0zm-43.94 0l-25.94 0 0 -29.9 29.9 0 0 29.9 -3.96 0zm-43.95 0l-25.93 0 0 -29.9 29.9 0 0 29.9 -3.97 0zm-43.94 0l-25.94 0 0 -29.9 29.9 0 0 29.9 -3.96 0zm-43.95 0l-25.93 0 0 -29.9 29.9 0 0 29.9 -3.97 0zm164.8 -461.42l-47.91 0 0 -29.9 51.87 0 0 29.9 -3.96 0zm164.79 0l-146.78 0 0 -29.9 150.74 0 0 29.9 -3.96 0zm0 43.94l-212.7 0 0 -29.9 216.66 0 0 29.9 -3.96 0zm76.9 43.95l-289.6 0 0 -29.9 293.57 0 0 29.9 -3.97 0zm-428.26 325.42c-2.66,-2.66 -4.16,-6.37 -4.16,-10.79l0 -256.64 29.9 0 0 129.35 18.29 -20.66c2.46,-2.54 8.25,-9.25 14.93,-16.99 12.69,-14.7 28.52,-33.03 32.41,-35.03 11.66,-6 22.57,5.76 34.23,18.33 2.5,2.71 5.06,5.46 7.81,8.21 1.87,1.87 4.73,4.87 7.89,8.19 6.73,7.05 14.97,15.68 20.66,20.56 2.77,-4.18 7.08,-9.29 10.23,-13.02l2.63 -3.13c0.54,-0.67 1.47,-1.91 2.51,-3.3 4.2,-5.59 10.02,-13.36 15.62,-14.98 11.1,-3.23 16.88,4.4 21.62,10.65 0.97,1.28 1.89,2.5 2.71,3.37 2.74,2.95 5.38,5.93 7.95,9.06 1.61,1.97 3.17,3.97 4.67,6.03 0.82,-0.79 1.68,-1.69 2.55,-2.65 3.22,-3.51 6.61,-7.78 8.67,-10.44 3.93,-5.1 10.38,-12.49 17.15,-20.25 6.33,-7.28 12.96,-14.88 17.97,-21.11l-1.22 0.29 -1.38 -2.87c-0.81,-1.69 -2.21,-6.52 -3.43,-11.38 -1.2,-4.79 -2.27,-9.79 -2.45,-11.97l-0.29 -3.41 3.34 -0.77c9.64,-2.25 17.04,-4.15 23.26,-5.75 12.07,-3.1 20.02,-5.14 25.61,-5.13 12.76,0.01 13.69,7.4 13.66,28.46l0 34.18 -29.89 0 0 -6.66c-6.3,7.15 -16.16,19.05 -25.37,30.17 -9.63,11.63 -18.56,22.41 -22.4,26.42 -2.72,2.84 -3.67,4.11 -5.27,6.48 1.63,2.19 3.41,4.29 5.24,6.36l16 -3.2c-0.16,-0.79 -0.29,-1.67 -0.43,-2.69 -0.15,-1.01 -0.33,-2.24 -0.65,-3.62 -0.25,-1.11 -0.59,-2.35 -0.93,-3.59 -0.79,-2.95 -1.59,-5.91 -1.88,-9.36l-0.28 -3.41 3.33 -0.77c9.64,-2.25 17.03,-4.15 23.25,-5.75 12.08,-3.1 20.03,-5.14 25.62,-5.13 12.76,0.01 13.69,7.4 13.66,28.46l0 34.18 -29.89 0 0 -11.77c-2.68,2.73 -5.46,5.91 -8.02,8.84 -1.52,1.74 -2.98,3.4 -4.08,4.61 -13.64,14.98 -20.86,22.15 -29.1,21.35 -8.11,-0.78 -14.67,-9.18 -27.2,-25.37 -1.36,-1.75 -2.61,-3.23 -3.92,-4.53l-1.06 -1c-1.41,2.03 -2.6,3.5 -5.29,6.31 -1.91,1.99 -3.97,4.64 -6.08,7.36 -5.77,7.45 -11.95,15.42 -19.58,16.13 -8.83,0.83 -15.87,-6.98 -23.4,-15.34 -3.49,-3.88 -7.11,-7.89 -10.83,-10.91 -4.59,5.01 -15.29,18.72 -24.89,31.02 -8.12,10.41 -15.48,19.84 -18.13,22.61 -1.91,2 -3.86,3.42 -5.84,4.34 -5.28,2.47 -10.24,1.41 -14.67,-1.5 -3.82,-2.49 -7.18,-6.45 -9.91,-10.47 -2.3,-3.4 -4.2,-6.96 -5.52,-9.69 -3.72,3.4 -9.62,10.7 -15.32,17.76 -6.24,7.73 -12.28,15.2 -16.29,18.14l-2.61 1.91 -21.71 -19.89 20.26 -23.38c2.88,-3.75 6.3,-7.39 9.7,-11.03 2.99,-3.18 5.98,-6.37 8.37,-9.36l1.23 -1.59c5.64,-7.29 14.79,-19.13 27.74,-9.27 1.67,1.27 5.8,6.75 9.39,12.19 1.47,2.23 2.9,4.51 4.06,6.54 5.36,-6.18 15.75,-19.23 23.81,-29.36 3.42,-4.29 6.43,-8.07 8.53,-10.66l-44.15 -43.55 -16.2 19.11c-1.17,1.32 -2.25,2.34 -3.33,3.35 -0.94,0.9 -1.89,1.79 -2.83,2.85 -1.14,1.29 -1.81,2.21 -2.45,3.09 -0.99,1.36 -1.94,2.66 -3.84,4.62 -2.48,2.55 -4.79,5.22 -7,7.78 -4.39,5.08 -8.47,9.79 -13.23,12.97l-2.2 1.47 -2.19 -1.47c-2.91,-1.94 -5.81,-4.58 -8.71,-7.22 -2.7,-2.46 -5.41,-4.93 -7.77,-6.51l-3.45 -2.31 0 111.79 307.61 0 0 29.9 -322.56 0c-4.42,0 -8.13,-1.5 -10.79,-4.16zm268.36 -125.27l-6.64 1.32c0.84,0.99 1.67,1.99 2.47,3.01l4.17 -4.33zm-84.55 -8.56l13.38 12.85 13.2 -16.24c-1.51,-1.85 -3.43,-3.9 -5.35,-5.95 -2.59,-2.78 -5.18,-5.55 -7.1,-8.18 -1.31,1.44 -2.86,3.24 -4.48,5.18 -3.55,4.27 -7.3,9.11 -9.65,12.34zm262.94 -276.46l-47.66 -47.12 -0.05 2.02c-0.45,15.81 -0.93,32.84 5.79,39.58 6.9,6.88 24.59,6.2 40.91,5.56l1.01 -0.04zm-308.09 -98.84l0 -20.76c0,-11.68 5.46,-22.98 13.81,-31.33 8.35,-8.37 19.66,-13.83 31.35,-13.83l335.08 0c11.69,0 22.57,5.45 30.7,13.31 8.81,8.51 14.46,19.98 14.46,30.48l0 392.6 -29.9 0 0 -384.36c0,-7.33 -1.91,-12.9 -5.57,-16.56 -3.65,-3.65 -9.23,-5.57 -16.55,-5.57l-321.35 0c-22.72,0 -22.45,17.96 -22.2,34.43l0.02 1.59 215.81 0c7.62,0 12.46,5.38 16.59,9.98 0.86,0.94 1.68,1.86 2.34,2.52l68.67 68.65c1.72,1.72 3.55,3.44 5.52,5.3 9.01,8.47 20.71,19.48 20.71,27.37l0 358.63 1.58 0.03c16.47,0.25 34.43,0.52 34.43,-22.2l0 -65.76 29.9 0 0 74c0,5.15 -1.56,10.49 -3.81,15.34 -2.77,5.97 -6.68,11.3 -10,14.63 -14.59,14.61 -28.97,14.3 -47.14,13.93l-5.1 -0.09c-0.37,5.48 -1.52,10.45 -3.41,15.02 -2.34,5.65 -5.79,10.61 -10.27,15.08 -4.45,4.47 -9.41,7.92 -15.09,10.27 -5.64,2.34 -11.91,3.55 -19,3.55l-3.97 0 0 -29.08 3.07 -0.71c6.25,-1.46 11.12,-3.33 14.23,-6.6 3.04,-3.19 4.68,-8.04 4.68,-15.64l0 -365.44 -55.09 0c-10.52,0 -21.97,-5.66 -30.48,-14.46 -7.86,-8.13 -13.31,-19.03 -13.31,-30.71l0 -53.71 -244.6 0c-7.32,0 -12.9,1.92 -16.56,5.57 -3.65,3.65 -5.57,9.23 -5.57,16.56l0 131.68 -29.9 0 0 -138.55c0,-11.68 5.46,-22.98 13.81,-31.33 8.35,-8.37 19.66,-13.83 31.35,-13.83l20.76 0zm238.64 571.28l2.9 0c7.32,0 12.9,-1.91 16.56,-5.57 3.65,-3.65 5.57,-9.23 5.57,-16.55l0 -299.38c0,-10.29 -3.18,-15.77 -8.07,-18.6 -4.41,-2.55 -10.44,-3.3 -16.96,-3.48l0 343.58zm-480.34 -303.65l0 -24.72c0,-11.69 5.46,-23 13.81,-31.35 8.37,-8.35 19.67,-13.81 31.35,-13.81l444.95 0c11.69,0 22.57,5.45 30.69,13.31 8.81,8.52 14.47,19.98 14.47,30.48l0 315.85c0,10.63 -5.66,21.61 -13.92,29.87 -8.27,8.26 -19.25,13.92 -29.87,13.92l-447.69 0c-5.33,0 -10.82,-1.63 -15.8,-4.02 -6.11,-2.92 -11.52,-7.02 -14.91,-10.54 -3.57,-3.7 -7.15,-8.65 -9.65,-14.47 -2.09,-4.83 -3.43,-10.28 -3.43,-16.13l0 -270.38 29.9 0 0 263.52c0,10.29 3.18,15.77 8.07,18.6 4.4,2.55 10.44,3.3 16.96,3.47l0 -343.5c-25.22,1.06 -25.17,12.69 -25.06,34.83l0.03 9.04 -29.9 0 0 -3.97z"/>
 </g>
</svg>
