<?xml version="1.0" encoding="UTF-8"?>
<!DOCTYPE svg PUBLIC "-//W3C//DTD SVG 1.1//EN" "http://www.w3.org/Graphics/SVG/1.1/DTD/svg11.dtd">
<!-- Creator: CorelDRAW -->
<svg xmlns="http://www.w3.org/2000/svg" xml:space="preserve" width="447px" height="421px" version="1.1" style="shape-rendering:geometricPrecision; text-rendering:geometricPrecision; image-rendering:optimizeQuality; fill-rule:evenodd; clip-rule:evenodd"
viewBox="0 0 171.69 162.02"
 xmlns:xlink="http://www.w3.org/1999/xlink"
 xmlns:xodm="http://www.corel.com/coreldraw/odm/2003">
 <defs>
  <style type="text/css">
   <![CDATA[
    .fil0 {fill:white}
   ]]>
  </style>
 </defs>
 <g id="Слой_x0020_1">
  <metadata id="CorelCorpID_0Corel-Layer"/>
  <g id="_105553234016832">
   <path class="fil0" d="M87.92 133.91c2.05,1.37 5.74,7.01 7.03,9.56 2.15,4.22 3.2,7.5 4.38,12.56l-11.06 0 -0.35 -22.12zm-46.39 -12.01l6.64 -1.47c5.56,-0.95 9.63,-0.9 15.17,0.05 2.56,0.43 4.64,1.14 6.96,1.68l-14.09 14.25 -14.68 -14.51zm-18.23 3.97c1.44,0.09 1.02,0.02 1.94,0.91 0.54,0.52 0.83,0.88 1.36,1.41 1.09,1.09 1.7,1.61 2.57,2.85l0 -2.66c1.36,-0.91 4.99,-3.43 6.57,-3.8l14.6 14.43c1.27,1.26 3.53,4.22 5.54,4.42 2.02,0.2 8.5,-7.24 10.18,-8.92l9.77 -9.93c2.3,1.22 4.13,2.4 6.22,3.8 0,2.35 0.35,3.85 0.34,6.57l-0.01 17.63c0.05,1.74 0.36,1.73 0.36,3.45l-26.52 0c1.1,0.66 0.95,-0.13 2.29,0.71 0.31,0.2 1.38,1.36 1.74,1.73 1.16,1.16 2.39,2.07 3.2,3.43l39.94 -0.08c1.81,-0.49 2.23,-2.24 1.93,-4.16 -0.25,-1.63 -0.65,-4.73 -1.16,-5.78 1.77,0.41 2.89,1.23 4.24,-0.6 0.55,-0.76 1.27,-3.68 1.28,-4.93 -0.14,-1.56 -1.09,-1.94 -1.99,-2.84 -0.43,-0.43 -0.8,-0.89 -1.2,-1.25 -1.11,-0.99 -0.32,-0.79 -1.29,-0.39 -0.35,0.72 -1.64,5.86 -1.73,6.9l-1.18 -2.97c-2.48,-6.22 -5.24,-10.33 -9.61,-15.26 -3.26,-3.67 -7.2,-7.11 -11.56,-9.53 -2.11,-1.17 -3.19,-1.73 -5.52,-2.77 -1.01,-0.45 -2.04,-0.89 -2.93,-1.21 -1.29,-0.48 -2.38,-0.5 -3.06,-1.44 1.44,-0.38 4.08,-2.66 4.83,-3.81l-3.79 -3.79c-3.8,2.49 -3.78,3.51 -9.03,5.15 -6.99,2.18 -14.96,0.18 -20.14,-4.67l-0.52 -0.51c-0.02,-0.03 -0.39,-0.44 -0.49,-0.55 -2.08,-2.29 -5,-5.94 -5.08,-9.44l23.18 0c0.45,-0.3 -0.05,-0.11 0.74,-0.29l2.4 -0.14 -5.26 -5.45 -24.18 0.01c-1.83,0.03 -2.33,0.35 -3.1,-0.7 1.88,-0.9 18.73,-0.34 22.48,-0.34l1.38 -0.35 -5.1 -5.3c-1.54,-1.58 -1.25,-1.02 -1.47,-0.92 -0.31,0.74 0.02,0.76 -2.76,0.71 -1.16,-0.02 -2.31,-0.02 -3.47,-0.02 -2.3,0 -4.61,0 -6.91,0 0,-3.37 1.62,-7.76 2.76,-10.06 -1.01,-0.74 -2.1,-1.84 -2.97,-2.86 -0.94,-1.11 -1.38,-2.26 -2.9,-2.66 1.14,5.06 1.95,-0.42 -0.95,7.03 -1.05,2.71 -1.47,5.24 -1.47,8.9 -2.65,1.4 -4.93,3.26 -4.08,7.52 0.42,2.09 2.29,3.72 4.26,4.39 1.37,0.46 1.41,-0.07 1.55,1.56 -1.28,0.3 -3.09,1.17 -4.15,1.73l-7.87 -7.68c1.25,-6.31 5.46,-6.3 1.71,-12.43 -2.7,-4.42 -4,-11.41 -5.14,-12.48 -0.8,-0.74 -7,-3.02 -8.4,-3.35l0 -11.4 7.56 -2.81c1.42,-0.71 1.62,-1.54 2.05,-3.14 0.42,-1.55 0.9,-2.55 1.19,-4.08 -0.7,-1.23 -3,-3.53 -4.23,-4.23 -1.01,1.36 -1.5,3.69 -2.01,5.33 -0.64,2.01 -0.91,1.45 -4.66,2.95 -7.18,2.89 -5.32,0.4 -5.43,17.04 -0.03,4.5 -0.51,4.37 7.92,7.28 2.61,0.9 1.6,0.92 2.99,4.62 0.72,1.91 1.26,3.38 2.1,5.15 2,4.18 1.96,1.8 -0.52,7.88 -2.53,6.21 -2.69,3.97 8.51,15.24 1.46,1.48 2.23,3 4.93,2.02 1.57,-0.57 3.83,-1.97 5.52,-2.11 0.4,1.72 2.92,5.02 4.06,6.31 1.2,1.35 4.21,4.28 5.96,4.75 -0.6,0.82 -6.33,2.53 -9.69,4.48 -5.95,3.45 -4.55,3.07 -8.62,5.8z"/>
   <path class="fil0" d="M163.26 74.81l0 -13.13c0,-1.28 1.65,-1.19 2.77,-1.73l0 16.59c-1.12,-0.54 -2.77,-0.44 -2.77,-1.73zm-11.06 -9.67l5.19 0 0 6.22 -5.19 0 0 -6.22zm-32.83 -7.61l18.32 0 0 8.99 -18.32 0 0 -8.99zm-61.84 -51.49l7.24 0c0.25,1.07 2.74,7.51 3.29,8.11 0.72,0.8 8.05,2.82 12.26,5.02 3.39,1.76 3.09,3.22 12.44,-1.73l7.86 8.04 -3.05 6.81c-1.25,3.46 2.57,5.64 5.07,14.68 0.51,1.84 0.33,2.48 1.77,3.4 1.41,0.89 2.42,0.65 3.56,1.63l-4.16 0c1.02,1.77 5.27,6.07 6.92,7.23l0 -1.7 2.77 0c0,2.42 0,4.84 0,7.26 0,9.11 -0.44,7.6 14.86,7.6 3.56,0 11.99,0.78 14.09,-0.76 1.59,-1.17 1.11,-3.87 1.11,-6.49 0,-2.54 0,-5.07 0,-7.61l2.77 0 0 21.43 -3.28 0c0.94,1.86 3.68,4.02 5.18,5.53 2.28,0 3.05,-0.22 3.65,-2.05 0.44,-1.32 0.32,-3.39 0.32,-5.21l5.19 0c0.25,3.09 2.14,3.08 4.7,3.93 11.52,3.83 9.45,4.57 9.47,-21.55 0,-3.12 0.61,-6.01 -2.43,-6.25 -1.5,-0.12 -5.31,1.4 -6.77,1.88 -2.63,0.88 -4.71,0.85 -4.97,4.02l-5.19 0c0,-8.88 -0.03,-7.26 -13.48,-7.26 -6.91,0 -13.82,0 -20.73,0 -0.07,-2.9 -2.14,-3.34 -4.2,-4.09 -7.43,-2.73 -4.73,-1 -7.84,-8.75 -2.74,-6.81 -3.9,-3.23 -0.17,-11.12 2.6,-5.5 -0.38,-6.03 -8.44,-14.14 -4.13,-4.15 -3.93,-2.89 -11.09,0.16 -3.48,1.48 -4.64,-1.51 -11.77,-3.57 -1.33,-0.38 -1.92,-0.18 -2.58,-1.56 -1.05,-2.2 -2.07,-7.47 -4.01,-8.44 -1.74,-0.86 -13.15,-0.33 -16.25,-0.33 0.83,1.13 1.83,1.96 2.87,3l3.02 2.88z"/>
   <path class="fil0" d="M82.05 97.62l0.1 0.11c-0.01,-0.01 -0.14,-0.07 -0.1,-0.11zm-4.15 -12.44l-13.13 0c0.8,-1.67 0.57,-15.06 1.05,-17.65 0.32,-1.73 1.79,-0.46 3.52,0.98 4.82,4 8.56,9.9 8.56,16.67zm-27.3 -23.85c2.93,-1.96 7.09,-1.96 10.02,0 -0.03,1.51 -0.27,1.22 -0.35,2.77 -0.06,1.12 0.07,2.34 0.01,3.46 -0.08,1.49 -0.27,1.26 -0.35,2.76 -0.06,1.12 0.06,2.34 0,3.46 -0.08,1.49 -0.27,1.26 -0.35,2.76 -0.51,9.58 1.19,8.64 -6.22,8.64 -2.31,0 -1.53,-7.9 -1.98,-11.15l-0.78 -12.7zm-20.39 8.27c1.52,0.4 1.96,1.55 2.9,2.66 0.87,1.02 1.96,2.12 2.97,2.86 0.97,-1.02 4.76,-7.54 9.33,-8.6l0.71 16.92c0.02,0.1 0.03,0.19 0.05,0.29l0.29 0.76c0.22,-0.1 -0.07,-0.66 1.47,0.92l5.1 5.3 -1.38 0.35 30.4 0c-0.45,1.65 -0.78,1.03 -5.53,1.03l-20.07 0 5.26 5.45 -2.4 0.14c-0.79,0.18 -0.29,-0.01 -0.74,0.29l17.6 0c-0.89,1.86 -1.09,3.4 -2.26,5.34l-3.26 4.68 3.79 3.79c3.71,-2.42 2.22,-4.61 6.45,-6.67 4.37,-2.12 2.92,-2.1 9.44,0.82 4.27,1.9 4.18,1.17 8.22,-2.86 1.74,-1.74 5.47,-5.09 6.65,-6.82 -1.02,0.26 -0.54,0.11 -1.37,0.67l-3.48 -3.79 -7.67 7.52c-1.09,-0.54 -2.69,-1.15 -4.02,-1.69 -1.42,-0.59 -2.7,-1.53 -4.54,-1.68 0.41,-0.36 -0.16,0.08 0.57,-0.47 0.35,-0.25 0.28,-0.17 0.61,-0.42 0.72,-0.55 0.72,-0.55 1.19,-1.23 0.7,-1.01 1.1,-1.71 1.12,-3.41 0.06,-3.85 -1.69,-4.51 -3.25,-5.77 -1.2,-0.95 -0.75,-0.58 -0.96,-3.54 -0.07,-1.04 -0.7,-3.05 -0.56,-3.75 0.23,-1.12 3.06,-3.52 3.25,-5.61 -0.16,-1.81 -2.54,-3.02 -3.45,-4.39 -0.47,1.37 0.09,-0.05 -0.59,0.69 -0.78,0.71 -1.27,2.14 -1.73,3.01 -1.13,-0.82 -0.47,-0.63 -1.92,-2.57 -0.78,-1.03 -1.28,-1.82 -2.13,-2.7 -1.95,-2.02 -5.44,-4.96 -8.05,-6.13 -2.15,-0.96 -1.67,0.01 -2.68,-2.16 -0.99,-2.1 -3.06,-3.52 -5.53,-4.14 -5.51,-1.4 -11.7,-0.25 -14.1,3.68 -1.22,1.98 0.17,1.32 -2.33,2.51l-5.97 3.71c-1.08,0.84 -1.52,1.57 -2.56,2.27 -0.08,-3.39 -2.36,-5.65 -0.08,-14.59 1.11,-4.34 3.42,-7.77 6.09,-10.63 -0.32,-1.31 -0.73,-1.41 -1.65,-2.3 -0.7,-0.67 -1.23,-1.19 -1.81,-1.85 -1.85,0.99 -3.86,4.07 -4.96,5.89 -1.49,2.48 -2.42,4.53 -3.33,7.73 -1.59,5.55 -1.38,13.93 0.9,18.49z"/>
   <path class="fil0" d="M117.3 84.49l18.66 0c-1.63,6.98 -12.07,10.03 -17.29,2.78 -0.84,-1.16 -0.77,-1.53 -1.37,-2.78zm-19.7 -14.52c0,-4.02 -0.16,-5.88 2.26,-9.48 1.15,-1.7 2.87,-2.75 5.34,-2.96l0 21.43c-5.21,-0.43 -7.6,-6.01 -7.6,-8.99zm2.75 23.16l3.48 3.79c0.83,-0.56 0.35,-0.41 1.37,-0.67 2.91,-2 1.26,-4.36 0.74,-5.59 -0.61,-1.46 -2.35,-4.73 -2.47,-6.17l7.95 0c1.02,4.38 3,7.52 6.22,9.68 -0.49,2.1 -4.45,16.39 -4.49,17.86 1.8,0.99 2.96,2.85 4.49,4.14 0.05,-0.06 0.1,-0.24 0.12,-0.2 0.01,0.05 0.09,-0.16 0.11,-0.2l4.96 -18.84c1.85,0 1.91,0.3 3.46,0.36 1.87,0.08 1.99,-0.36 3.79,-0.36 0.04,1.58 3.16,12.04 3.81,14.51l10.02 36.64c0.63,2.43 1.39,5.26 4.42,4.1 3.57,-1.37 0.35,-7.8 -1.11,-13.64 -1.25,-5.02 -2.71,-9.72 -4,-14.65l-7.95 -29.38c3.24,-2.17 6.24,-6.09 6.56,-10.02l6.4 0c-1.5,-1.51 -4.24,-3.67 -5.18,-5.53l-32.32 0 0 -19.73c-1.65,-1.16 -5.9,-5.46 -6.92,-7.23 -3.28,0.08 -6.16,2.41 -7.86,4.23 -6.45,6.93 -5.16,21.05 1.99,25.84 -2.23,4.23 3.25,9.13 2.41,11.06z"/>
   <path class="fil0" d="M23.3 133.91l0.34 22.12 -11.75 0c0.82,-1.71 1.2,-8.9 7.4,-17.48 1.01,-1.39 2.76,-3.81 4.01,-4.64zm40.15 27.99c-0.81,-1.36 -2.04,-2.27 -3.2,-3.43 -0.36,-0.37 -1.43,-1.53 -1.74,-1.73 -1.34,-0.84 -1.19,-0.05 -2.29,-0.71l-26.7 0c0,-4.5 -0.35,-7.7 -0.35,-12.1 0,-4.3 0,-8.59 0,-12.89 -0.87,-1.24 -1.48,-1.76 -2.57,-2.85 -0.53,-0.53 -0.82,-0.89 -1.36,-1.41 -0.92,-0.89 -0.5,-0.82 -1.94,-0.91 -3.79,3.21 -6.99,6.97 -9.75,11.08 -3.99,5.94 -6.48,13 -7.53,20.14 -0.32,2.19 -0.39,4.04 1.86,4.68 1.68,0.48 49.51,0.13 55.57,0.13z"/>
   <path class="fil0" d="M37.6 37.49c0.58,0.66 1.11,1.18 1.81,1.85 0.92,0.89 1.33,0.99 1.65,2.3 9.21,-8.4 21.13,-10.46 31.87,-3.33 4.6,3.06 7.67,7.15 9.67,12.45 3.6,9.56 -0.36,16.02 -0.55,18.62 0.68,-0.74 0.12,0.68 0.59,-0.69 0.91,1.37 3.29,2.58 3.45,4.39 1.84,-1.69 3.08,-7.87 3.43,-10.15 0.62,-4.1 -0.04,-9.52 -1.03,-12.53 -4.73,-14.45 -16.38,-22.69 -32.71,-21.9 -3.35,0.16 -8.02,1.8 -10.42,3.06 -1.58,0.83 -2.84,1.57 -4.29,2.62 -0.71,0.51 -1.35,0.96 -1.97,1.49l-1.5 1.82z"/>
   <path class="fil0" d="M12.24 39.13c1.23,0.7 3.53,3 4.23,4.23 0.77,-1.11 1.3,-3.18 1.98,-4.5 2.96,-5.76 3.21,-3.42 0.84,-9.12 -0.73,-1.78 -1.44,-2.85 -1.87,-4.69l7.87 -7.69c1.09,0.62 7.18,3.42 8.08,3.53 1.93,0.24 4.81,-2.11 8.14,-3.55 3.41,-1.47 7.36,-2.01 8.32,-3.08 1.19,-1.32 2.51,-6.3 3.53,-8.22l4.17 0 -3.02 -2.88c-1.04,-1.04 -2.04,-1.87 -2.87,-3 -3.61,0.08 -3.55,4.63 -5.52,8.66 -0.96,1.99 -4.15,1.84 -9.58,4.59 -1.44,0.73 -2.5,1.68 -4.26,0.95 -9.67,-3.98 -6.73,-5.22 -14.43,2.48 -4.94,4.94 -7.91,6.1 -6.09,10.07 1.54,3.37 3.49,6.28 2.3,8.24 -0.9,1.48 -1.34,2.15 -1.82,3.98z"/>
   <path class="fil0" d="M105.2 141.87c0.97,-0.4 0.18,-0.6 1.29,0.39 0.4,0.36 0.77,0.82 1.2,1.25 0.9,0.9 1.85,1.28 1.99,2.84 0.76,-1.05 7.93,-28.28 7.96,-30.18 -1.53,-1.29 -2.69,-3.15 -4.49,-4.14 -0.99,1.88 -1.53,5.18 -2.07,7.37 -0.62,2.51 -1.26,4.71 -1.93,7.39 -1.3,5.16 -2.78,9.96 -3.95,15.08z"/>
  </g>
 </g>
</svg>
