<svg width="388" height="384" viewBox="0 0 388 384" fill="none" xmlns="http://www.w3.org/2000/svg">
<path fill-rule="evenodd" clip-rule="evenodd" d="M324.938 299.64L342.542 282.036C351.292 287.887 371.898 301.918 371.898 313.308C371.898 326.511 355.071 339.506 338.607 317.295L324.938 299.64ZM197.78 98.0806C199.799 101.135 200.368 103.931 205.598 103.931H262.343C268.297 103.931 268.97 100.566 270.161 96.1132C268.09 93.0585 267.572 90.2626 262.343 90.2626H205.598C199.799 90.2626 198.815 93.5762 197.78 98.0806ZM197.78 135.255C201.3 137.637 201.197 139.19 205.598 139.19H264.258C274.199 139.19 270.989 125.469 262.343 125.469H209.481C200.782 125.469 199.385 128.162 197.78 135.255ZM45.1476 287.887H68.6015V332.879H45.1476V287.887ZM33.3947 276.134C29.3045 293.789 31.4273 319.832 31.4273 338.781C31.4273 350.638 52.0854 346.599 74.5039 346.599C79.0083 346.599 80.3544 345.201 80.3544 340.697V282.036C80.3544 267.28 35.1033 275.461 33.3947 276.134ZM176.241 264.381H197.78V332.879H176.241V264.381ZM162.521 258.531V338.781C162.521 350.638 183.179 346.599 205.598 346.599C210.102 346.599 211.448 345.201 211.448 340.697V258.531C211.448 246.778 191.774 250.713 170.339 250.713C165.783 250.713 162.521 253.974 162.521 258.531ZM109.711 229.174H133.165V332.879H109.711V229.174ZM97.9578 221.356V340.697C97.9578 350.379 113.387 346.599 139.067 346.599C143.623 346.599 146.885 343.338 146.885 338.781V223.324C146.885 211.416 126.227 215.506 103.808 215.506C99.304 215.506 97.9578 216.852 97.9578 221.356ZM113.594 172.429V150.943C130.472 150.528 145.539 133.546 146.885 117.651H168.423C166.145 145.092 142.484 172.429 113.594 172.429ZM107.743 84.4121C141.293 84.4121 147.144 139.19 103.808 139.19C72.64 139.19 68.5498 84.4121 107.743 84.4121ZM66.6341 109.833C66.6341 132.511 81.0275 150.477 99.9253 150.943V172.429C56.2791 172.429 22.4185 109.109 63.8383 67.8959C98.372 33.621 164.022 53.1401 168.423 105.899H146.885C145.435 88.6576 126.589 70.6918 107.743 70.6918C86.9298 70.6918 66.6341 88.6058 66.6341 109.833ZM31.4273 109.833C31.4273 149.182 63.1134 186.149 101.893 186.149C126.848 186.149 142.898 182.888 162.107 162.23C189.496 132.666 187.632 87.8292 161.123 60.3368C111.16 8.56205 31.4273 51.2245 31.4273 109.833ZM262.343 287.887C262.343 272.976 266.485 258.531 287.764 258.531C312.72 258.531 313.185 278.05 313.185 291.822C305.109 293.686 297.342 297.672 287.764 297.672C279.325 297.672 262.343 295.653 262.343 287.887ZM276.011 233.109C291.233 204.322 311.011 244.862 289.732 244.862C277.047 244.862 279.894 241.756 276.011 233.109ZM264.258 231.142C264.258 248.227 265.76 240.254 268.193 250.713C256.492 258.531 249.969 265.934 248.622 282.036C211.5 239.322 245.93 190.033 281.914 190.033C296.462 190.033 304.073 190.033 317.483 199.456C318.725 200.336 319.554 201.009 320.796 202.044C348.392 225.498 343.94 265.624 326.906 278.101C321.211 266.297 319.295 254.44 305.367 250.713C321.003 227.414 303.297 209.603 287.764 209.603C275.959 209.603 264.258 219.492 264.258 231.142ZM219.266 242.895C219.266 280.431 246.758 308.131 285.797 311.393C285.797 348.774 291.699 370.053 274.044 370.053H27.5442C21.4865 370.053 15.7913 368.241 15.7913 362.235V21.7646C15.7913 15.7587 21.4865 13.9466 27.5442 13.9466H236.869C236.869 61.9936 236.093 64.8412 285.797 64.8412V176.364C250.331 176.364 219.266 207.274 219.266 242.895ZM250.59 25.6995L276.477 50.6549C248.467 51.1209 250.59 52.933 250.59 25.6995ZM2.07098 23.7321V360.268C2.07098 370.519 10.8209 381.806 21.6418 381.806H279.946C307.024 381.806 299.517 336.348 299.517 309.425L313.134 305.231C316.085 309.788 318.208 311.496 321.884 316.363C330.219 327.443 339.901 342.665 356.262 342.665C366.772 342.665 414.871 320.246 360.456 279.81C355.693 276.289 352.69 273.131 348.444 270.283C353.673 247.761 358.022 231.867 344.457 209.655C336.329 196.349 318.932 179.936 299.517 178.331C299.517 141.571 301.588 98.6501 299.672 62.7184C299.051 51.4316 286.159 42.6816 273.578 30.1003C268.245 24.7675 249.295 2.19376 242.772 2.19376H21.6418C10.8209 2.19376 2.07098 13.4807 2.07098 23.7321Z" fill="white"/>
<path d="M323.489 298.138L342.283 279.344L343.681 280.276C348.133 283.279 355.589 288.301 361.906 294.048C368.533 300.054 373.969 306.94 373.969 313.308C373.969 317.45 372.519 321.592 369.982 324.854C367.963 327.443 365.271 329.462 362.164 330.549C359.006 331.585 355.382 331.74 351.602 330.446C346.891 328.841 341.869 325.165 336.95 318.538L322.194 299.433L323.489 298.138ZM342.801 284.677L327.682 299.795L340.264 316.052C344.613 321.955 348.962 325.165 352.897 326.511C355.796 327.495 358.488 327.391 360.818 326.614C363.148 325.786 365.167 324.233 366.721 322.265C368.688 319.78 369.827 316.57 369.827 313.308C369.827 308.338 364.96 302.436 359.11 297.155C353.57 292.132 347.201 287.628 342.801 284.677ZM199.954 97.7182L200.524 98.5984C201.559 100.41 202.439 101.86 205.598 101.86H262.343C266.278 101.86 267.054 99.5821 267.934 96.4756L267.417 95.5954C266.329 93.7833 265.449 92.3336 262.343 92.3336H205.598C203.423 92.3336 202.232 92.8514 201.507 93.7833C200.834 94.6635 200.368 96.0614 199.954 97.7182ZM196.951 100.721C196.641 100.203 196.33 99.6856 196.019 99.2196L195.553 98.4948L195.76 97.6146C196.33 95.1294 196.899 92.9031 198.297 91.1946C199.799 89.2789 201.973 88.1916 205.598 88.1916H262.343C267.831 88.1916 269.229 90.5733 270.989 93.4727C271.248 93.9904 271.559 94.5599 271.869 94.9741L272.387 95.7507L272.025 97.0969C270.678 102.171 269.695 106.054 262.343 106.054H205.598C200.109 106.054 198.66 103.672 196.951 100.721ZM200.109 134.375C200.679 134.841 201.145 135.203 201.507 135.566C202.595 136.549 203.268 137.119 205.598 137.119H264.258C266.381 137.119 267.572 136.29 268.038 135.203C268.245 134.685 268.349 134.064 268.297 133.443C268.297 132.718 268.09 131.993 267.779 131.32C266.899 129.301 264.931 127.54 262.343 127.54H209.481C205.753 127.54 203.63 128.058 202.439 129.197C201.352 130.233 200.731 131.941 200.109 134.375ZM198.815 138.724C198.246 138.206 197.521 137.637 196.589 136.963L195.398 136.187L195.709 134.789C196.641 130.906 197.521 128.162 199.54 126.194C201.611 124.227 204.562 123.398 209.481 123.398H262.343C266.795 123.398 270.109 126.246 271.61 129.663C272.076 130.802 272.387 131.993 272.439 133.236C272.542 134.478 272.335 135.721 271.869 136.808C270.782 139.397 268.349 141.261 264.258 141.261H205.598C201.714 141.261 200.627 140.329 198.815 138.724ZM45.1476 285.816H70.6725V334.95H43.0248V285.816H45.1476ZM66.5306 289.958H47.2186V330.808H66.5306V289.958ZM35.1551 277.843C32.411 290.786 32.8252 308.131 33.2394 323.715C33.3947 329.151 33.4983 334.381 33.4983 338.781C33.4983 344.114 39.9701 345.15 49.3413 345.15C52.9138 345.15 56.538 345.046 60.4211 344.891C64.9773 344.684 69.7924 344.528 74.5039 344.528C76.1607 344.528 77.1962 344.321 77.6104 343.855C78.0763 343.389 78.2834 342.406 78.2834 340.697V282.036C78.2834 281.467 78.1799 280.949 78.0246 280.535C77.2997 278.723 75.1252 277.48 72.174 276.652C68.8086 275.72 64.4596 275.357 59.9552 275.357C49.5484 275.357 38.5204 277.118 35.1551 277.843ZM29.0974 323.767C28.6832 307.458 28.2172 289.233 31.3755 275.668L31.6344 274.633L32.6181 274.218C33.6018 273.856 47.4257 271.215 59.9552 271.215C64.7702 271.215 69.4817 271.578 73.2613 272.665C77.455 273.804 80.6651 275.823 81.8559 279.033C82.2183 279.965 82.4254 280.949 82.4254 282.036V340.697C82.4254 343.545 81.9077 345.46 80.5615 346.807C79.2154 348.153 77.2997 348.67 74.5039 348.67C69.5335 348.67 64.9255 348.878 60.5765 349.033C56.4863 349.188 52.6549 349.343 49.3413 349.343C37.4849 349.343 29.3563 347.531 29.3563 338.781C29.3563 333.811 29.201 328.892 29.0974 323.767ZM176.241 262.31H199.851V334.95H174.17V262.31H176.241ZM195.657 266.504H178.312V330.808H195.657V266.504ZM164.592 258.531V338.781C164.592 344.114 171.064 345.15 180.435 345.15C184.007 345.15 187.683 345.046 191.515 344.891C196.071 344.684 200.938 344.528 205.598 344.528C207.254 344.528 208.29 344.321 208.756 343.855C209.17 343.389 209.377 342.406 209.377 340.697V258.531C209.377 253.25 203.112 252.162 194.052 252.162C190.686 252.162 187.269 252.318 183.593 252.421C179.296 252.628 174.74 252.784 170.339 252.784C168.63 252.784 167.181 253.353 166.197 254.389C165.213 255.372 164.592 256.822 164.592 258.531ZM160.45 338.781V258.531C160.45 255.683 161.485 253.198 163.246 251.437C165.058 249.677 167.491 248.642 170.339 248.642C174.999 248.642 179.348 248.434 183.438 248.279C187.321 248.124 190.997 248.02 194.052 248.02C205.598 248.02 213.519 249.781 213.519 258.531V340.697C213.519 343.545 213.001 345.46 211.655 346.807C210.309 348.153 208.393 348.67 205.598 348.67C200.679 348.67 196.019 348.878 191.67 349.033C187.632 349.188 183.749 349.343 180.435 349.343C168.579 349.343 160.45 347.531 160.45 338.781ZM109.711 227.103H135.287V334.95H107.64V227.103H109.711ZM131.094 231.245H111.782V330.808H131.094V231.245ZM100.029 221.356V340.697C100.029 344.425 104.171 345.253 111.626 345.253C114.733 345.253 118.15 345.098 121.93 344.943C127.055 344.736 132.854 344.528 139.067 344.528C140.776 344.528 142.225 343.907 143.209 342.923C144.193 341.94 144.814 340.49 144.814 338.781V223.324C144.814 217.991 138.342 216.904 128.971 216.904C125.398 216.904 121.774 217.059 117.891 217.214C113.335 217.37 108.52 217.577 103.808 217.577C102.152 217.577 101.116 217.732 100.702 218.198C100.236 218.664 100.029 219.7 100.029 221.356ZM95.8868 340.697V221.356C95.8868 218.509 96.4046 216.593 97.7507 215.247C99.0969 213.901 101.013 213.383 103.808 213.383C108.779 213.383 113.387 213.228 117.736 213.072C121.826 212.917 125.657 212.762 128.971 212.762C140.827 212.762 148.956 214.522 148.956 223.324V338.781C148.956 341.629 147.92 344.114 146.16 345.875C144.4 347.635 141.915 348.67 139.067 348.67C132.595 348.67 127.003 348.878 122.085 349.085C118.098 349.24 114.474 349.395 111.626 349.395C101.479 349.395 95.8868 347.842 95.8868 340.697ZM111.523 172.429V148.872L113.594 148.82C121.153 148.665 128.401 144.833 134.045 139.19C140.051 133.184 144.141 125.159 144.814 117.496L144.969 115.58H170.65L170.494 117.807C169.252 132.511 162.159 147.163 151.441 157.829C141.397 167.925 128.143 174.5 113.594 174.5H111.523V172.429ZM115.717 152.858V170.306C128.246 169.685 139.637 163.731 148.49 154.929C157.965 145.403 164.437 132.666 166.093 119.722H148.749C147.558 127.799 143.157 135.928 136.996 142.141C131.145 147.991 123.69 152.082 115.717 152.858ZM107.743 82.2893C120.946 82.2893 130.162 90.1591 134.252 100.152C135.857 103.931 136.685 108.021 136.685 112.163C136.685 116.254 135.909 120.396 134.252 124.175C130.006 133.805 120.221 141.261 103.808 141.261C91.5895 141.261 83.202 133.546 79.4743 123.657C78.0246 119.93 77.2997 115.839 77.2997 111.749C77.2997 107.659 78.0246 103.517 79.5778 99.7892C83.5127 89.952 92.625 82.2893 107.743 82.2893ZM130.421 101.705C126.9 93.162 119.03 86.4831 107.743 86.4831C94.6442 86.4831 86.7745 92.9549 83.4091 101.291C82.1148 104.604 81.4417 108.177 81.4417 111.749C81.4417 115.322 82.1148 118.894 83.3574 122.208C86.5156 130.543 93.557 137.119 103.808 137.119C118.254 137.119 126.796 130.699 130.472 122.518C131.87 119.256 132.543 115.684 132.543 112.163C132.543 108.591 131.819 105.018 130.421 101.705ZM68.7569 109.833C68.7569 120.706 72.174 130.44 77.8692 137.481C83.4091 144.367 91.1753 148.665 99.977 148.82L101.996 148.872V174.5H99.9253C85.6872 174.5 72.4329 168.08 62.3368 157.88C56.4345 151.978 51.6194 144.73 48.2541 136.86C44.8887 128.887 42.973 120.24 42.973 111.387C42.973 96.0096 48.72 80.0112 62.3886 66.4462C73.1577 55.7289 86.8263 50.0854 100.805 48.9464C110.384 48.118 120.066 49.4123 129.074 52.6224C138.083 55.8324 146.419 60.9581 153.253 67.7924C162.676 77.3189 169.2 90.1073 170.494 105.743L170.65 107.97H144.969L144.814 106.106C144.141 97.8735 139.171 89.4342 132.129 83.0659C125.295 76.9047 116.493 72.7628 107.743 72.7628C97.699 72.7628 87.7582 77.1636 80.4062 84.1532C73.3648 90.8839 68.7569 99.9963 68.7569 109.833ZM74.6074 140.07C68.3427 132.355 64.5631 121.69 64.5631 109.833C64.5631 98.8055 69.7406 88.6058 77.5586 81.1503C85.6354 73.4876 96.6117 68.6208 107.743 68.6208C117.58 68.6208 127.366 73.177 134.925 79.9594C142.173 86.5348 147.403 95.1812 148.749 103.828H166.093C164.488 90.2626 158.638 79.131 150.302 70.7435C143.934 64.3235 136.168 59.5602 127.728 56.5573C119.237 53.5543 110.125 52.3117 101.168 53.0883C88.1206 54.1756 75.3323 59.4049 65.3397 69.3974C52.4996 82.0822 47.115 96.9933 47.115 111.387C47.115 119.671 48.9271 127.799 52.0336 135.203C55.1919 142.659 59.7481 149.389 65.288 154.981C74.1414 163.886 85.5319 169.737 97.8543 170.306V152.858C88.5866 152.082 80.5097 147.37 74.6074 140.07ZM33.4983 109.833C33.4983 129.301 41.4716 148.147 54.2599 162.022C66.5823 175.38 83.4091 184.078 101.893 184.078C114.163 184.078 124.208 183.25 133.424 179.988C142.639 176.675 151.182 170.876 160.554 160.78C173.704 146.645 179.917 128.835 179.762 111.231C179.607 93.162 172.721 75.2997 159.622 61.7865C144.296 45.8917 126.123 39.1609 108.416 39.1609C98.4756 39.1609 88.6902 41.2837 79.6296 45.0633C70.5172 48.8946 62.1815 54.3827 55.1919 61.1652C42.0411 73.85 33.4983 90.9875 33.4983 109.833ZM51.2052 164.818C37.7438 150.27 29.3563 130.336 29.3563 109.833C29.3563 89.7967 38.3651 71.6237 52.2925 58.1623C59.6963 51.0174 68.4462 45.2186 78.0246 41.2319C87.5511 37.1935 97.9061 34.9672 108.416 34.9672C127.159 34.9672 146.419 42.1121 162.625 58.8871C176.448 73.2287 183.749 92.1265 183.904 111.231C184.059 129.819 177.484 148.665 163.608 163.627C153.771 174.241 144.659 180.402 134.821 183.871C125.036 187.392 114.578 188.22 101.893 188.22C82.1665 188.22 64.3042 179.005 51.2052 164.818ZM260.22 287.887C260.22 280.069 261.359 272.354 265.346 266.452C269.384 260.446 276.322 256.46 287.764 256.46C301.226 256.46 308.112 261.844 311.684 269.093C315.153 276.134 315.308 284.729 315.308 291.822V293.427L313.651 293.841C311.063 294.41 308.526 295.239 305.937 296.067C300.345 297.879 294.495 299.743 287.764 299.743C282.638 299.743 274.303 299.018 268.349 296.689C263.637 294.876 260.22 292.081 260.22 287.887ZM268.763 268.782C265.346 273.804 264.414 280.794 264.414 287.887C264.414 290.01 266.692 291.615 269.798 292.805C275.235 294.928 282.949 295.601 287.764 295.601C293.925 295.601 299.413 293.841 304.694 292.132C306.869 291.408 308.992 290.734 311.115 290.165C311.063 283.848 310.752 276.6 308.008 270.905C305.057 265.002 299.258 260.602 287.764 260.602C277.927 260.602 272.128 263.863 268.763 268.782ZM274.199 232.125C280.36 220.476 287.505 219.026 292.942 221.926C295.427 223.22 297.446 225.447 298.896 228.035C300.294 230.572 301.122 233.523 301.122 236.267C301.122 241.963 297.912 246.933 289.732 246.933C278.445 246.933 277.772 244.707 275.908 238.856C275.493 237.458 274.976 235.801 274.147 233.938L273.733 233.006L274.199 232.125ZM291.026 225.602C287.609 223.79 282.897 225.084 278.341 233.213C279.014 234.921 279.48 236.371 279.894 237.614C281.085 241.341 281.499 242.739 289.732 242.739C294.909 242.739 296.98 239.736 296.98 236.267C296.98 234.196 296.359 231.97 295.271 230.054C294.184 228.139 292.734 226.534 291.026 225.602ZM266.381 231.142C266.381 241.186 266.847 241.963 267.624 243.361C268.349 244.5 269.229 246.001 270.212 250.247L270.523 251.645L269.332 252.421C263.689 256.201 259.34 259.877 256.233 264.433C253.179 268.989 251.315 274.529 250.693 282.192L250.279 287.11L247.069 283.382C235.368 269.921 230.553 255.838 230.553 242.687C230.553 234.3 232.572 226.275 235.989 219.078C239.458 211.933 244.325 205.617 250.124 200.595C259.184 192.725 270.42 187.962 281.914 187.962C296.876 187.962 304.746 187.962 318.674 197.747C319.295 198.213 319.813 198.627 320.434 199.041C321.003 199.507 321.521 199.973 322.143 200.439C325.767 203.546 328.873 206.911 331.462 210.484C339.487 221.408 342.801 234.093 342.645 245.794C342.49 257.547 338.814 268.316 332.808 275.357C331.41 277.066 329.805 278.516 328.148 279.758L326.129 281.26L325.042 278.982C323.851 276.548 322.919 274.27 321.935 271.992C318.311 263.242 315.049 255.424 304.85 252.732L302.054 251.955L303.659 249.574C307.697 243.516 309.354 237.924 309.354 233.006C309.354 229.174 308.319 225.705 306.61 222.806C304.902 219.803 302.52 217.37 299.776 215.506C296.1 213.072 291.854 211.674 287.764 211.674C282.276 211.674 276.788 214.056 272.749 217.784C268.918 221.305 266.381 226.016 266.381 231.142ZM264.103 245.483C262.86 243.464 262.187 242.325 262.187 231.142C262.187 224.825 265.294 218.975 269.954 214.729C274.769 210.328 281.24 207.532 287.764 207.532C292.631 207.532 297.705 209.137 302.054 212.037C305.316 214.263 308.215 217.163 310.234 220.683C312.305 224.256 313.496 228.398 313.496 233.006C313.496 238.08 312.046 243.619 308.578 249.522C318.674 253.301 322.039 261.378 325.819 270.439C326.388 271.837 327.009 273.338 327.631 274.788C328.355 274.115 329.029 273.442 329.65 272.665C335.034 266.349 338.348 256.511 338.503 245.742C338.659 234.87 335.552 223.065 328.148 212.917C325.715 209.655 322.816 206.497 319.45 203.649C318.829 203.08 318.311 202.666 317.845 202.355C317.431 201.993 316.913 201.63 316.292 201.164C303.4 192.155 296.048 192.155 281.914 192.155C271.455 192.155 261.152 196.504 252.816 203.753C247.483 208.413 242.927 214.263 239.769 220.89C236.559 227.517 234.747 234.921 234.747 242.687C234.747 253.716 238.423 265.468 247.173 276.962C248.156 270.957 250.072 266.193 252.816 262.103C255.974 257.34 260.323 253.612 265.812 249.832C265.139 247.192 264.569 246.26 264.103 245.483ZM221.337 242.895C221.337 261.016 227.964 276.755 239.251 288.405C250.642 300.157 266.899 307.717 285.952 309.27L287.868 309.477V311.393C287.868 319.832 288.178 327.287 288.437 333.863C288.644 339.299 288.851 344.166 288.851 348.256C288.851 363.789 286.366 372.176 274.044 372.176H27.5442C23.8682 372.176 20.2439 371.503 17.6552 369.743C15.2218 368.189 13.7203 365.756 13.7203 362.235V21.7646C13.7203 18.2439 15.2218 15.8623 17.6552 14.2573C20.2439 12.4969 23.8682 11.8756 27.5442 11.8756H238.992V16.1729C238.94 60.0779 238.94 62.7185 285.797 62.7185H287.868V178.435H285.797C268.607 178.435 252.505 185.942 240.701 197.799C228.896 209.552 221.337 225.654 221.337 242.895ZM236.248 291.304C224.236 278.878 217.195 262.155 217.195 242.895C217.195 224.515 225.168 207.377 237.75 194.848C249.813 182.732 266.174 174.863 283.726 174.293V66.9122C234.799 66.8087 234.799 63.3397 234.799 16.1729V16.0176H27.5442C24.593 16.0176 21.7454 16.4836 19.9333 17.7262C18.6389 18.5546 17.8623 19.849 17.8623 21.7646V362.235C17.8623 364.151 18.6389 365.445 19.9333 366.326C21.7454 367.516 24.593 367.982 27.5442 367.982H274.044C282.897 367.982 284.658 361.045 284.658 348.256C284.658 343.907 284.502 339.247 284.295 334.018C284.036 327.753 283.777 320.764 283.726 313.256C264.465 311.237 248.001 303.368 236.248 291.304ZM252.04 24.198L281.551 52.6224L271.507 52.8295C260.375 53.0366 254.835 53.1919 251.625 50.0854C248.415 46.9789 248.415 41.6461 248.467 31.0841L248.519 20.7809L252.04 24.198ZM271.455 48.6875L252.661 30.5663V31.0841C252.557 40.5071 252.557 45.2186 254.473 47.0825C256.44 48.9981 261.411 48.8946 271.403 48.6875H271.455ZM4.14198 23.7321V360.268C4.14198 365.083 6.31652 370.157 9.73365 373.936C12.8919 377.405 17.0857 379.735 21.6418 379.735H279.946C295.582 379.735 298.378 361.925 298.378 342.457C298.378 336.348 298.119 330.342 297.86 324.595C297.653 319.159 297.446 313.878 297.446 309.425V307.872L314.014 302.798L314.842 304.092C316.499 306.629 317.897 308.234 319.45 310.046C320.641 311.444 321.935 312.998 323.54 315.12L325.715 318.072C333.326 328.323 342.335 340.594 356.262 340.594C359.524 340.594 366.772 338.16 373.141 333.5C376.972 330.653 380.441 327.029 382.305 322.679C384.169 318.434 384.531 313.36 382.305 307.509C379.457 300.054 372.468 291.356 359.213 281.467C357.039 279.81 355.227 278.36 353.57 276.911C351.499 275.15 349.531 273.493 347.253 271.992L346.062 271.215L346.891 267.591C351.809 246.726 355.382 231.452 342.697 210.742C338.348 203.598 331.203 195.521 322.505 189.463C315.567 184.596 307.646 181.076 299.31 180.402L297.446 180.247V178.331C297.446 166.371 297.653 153.117 297.912 139.604C298.378 113.509 298.844 86.6384 297.601 62.822C297.135 54.9522 289.68 48.0144 280.671 39.7305C277.875 37.0899 274.924 34.3977 272.128 31.55C271.144 30.5663 269.384 28.6507 267.21 26.3208C259.65 18.0368 247.017 4.26475 242.772 4.26475H21.6418C17.0857 4.26475 12.8919 6.64639 9.73365 10.0635C6.31652 13.8431 4.14198 18.917 4.14198 23.7321ZM0 360.268V23.7321C0 17.8815 2.58874 11.7721 6.67894 7.26769C10.562 3.02216 15.7913 0.122772 21.6418 0.122772H242.772C248.829 0.122772 262.239 14.7233 270.264 23.525C272.232 25.6477 273.837 27.4081 275.027 28.5989C277.979 31.55 280.774 34.1388 283.519 36.6757C293.149 45.581 301.226 53.0366 301.743 62.6149C303.038 86.4831 302.52 113.458 302.054 139.708C301.847 152.082 301.588 164.301 301.588 176.468C309.975 177.555 317.897 181.179 324.887 186.046C334.102 192.466 341.61 201.009 346.27 208.568C359.783 230.779 356.055 246.726 350.981 268.575L350.774 269.351C352.741 270.801 354.45 272.251 356.262 273.752C357.919 275.15 359.627 276.6 361.647 278.101C375.678 288.56 383.081 297.879 386.188 306.06C388.828 312.998 388.362 319.107 386.084 324.336C383.91 329.462 379.975 333.656 375.626 336.866C368.533 342.043 360.093 344.736 356.262 344.736C340.264 344.736 330.53 331.585 322.401 320.557L320.227 317.606C318.725 315.638 317.483 314.137 316.292 312.791C314.894 311.134 313.651 309.684 312.254 307.665L301.588 310.927C301.64 315.224 301.847 319.728 302.002 324.44C302.261 330.394 302.52 336.607 302.52 342.457C302.52 364.099 299.103 383.877 279.946 383.877H21.6418C15.7913 383.877 10.562 380.978 6.67894 376.732C2.58874 372.228 0 366.118 0 360.268Z" fill="white"/>
</svg>
